<svg xmlns="http://www.w3.org/2000/svg" viewBox="0 0 47.61 63.46"><title>alcoolfort</title><g style="isolation:isolate"><g id="Calque_2" data-name="Calque 2"><g id="Layer_1" data-name="Layer 1"><g style="mix-blend-mode:soft-light"><path d="M41.64,25.68s.62-.62.62-3.5A17.25,17.25,0,0,0,40.71,15H35.39a17.25,17.25,0,0,0-1.55,7.21c0,2.88.62,3.5.62,3.5l-4.75,3.79A3.22,3.22,0,0,0,28.49,32V61.55a1.9,1.9,0,0,0,1.91,1.91H45.7a1.9,1.9,0,0,0,1.91-1.91V32a3.24,3.24,0,0,0-1.21-2.52Z" style="fill:#f49600"/><path d="M46.4,29.47l-4.76-3.79s.62-.62.62-3.5A17.25,17.25,0,0,0,40.71,15h-4c-.13,2.23-.33,5-.49,7.2a8.51,8.51,0,0,0,3.19,7.3h0A3.21,3.21,0,0,1,40.63,32V61.55a1.9,1.9,0,0,1-1.9,1.91h7a1.9,1.9,0,0,0,1.91-1.91V32A3.24,3.24,0,0,0,46.4,29.47Z" style="fill:#e47c08"/><rect x="28.49" y="33.9" width="19.12" height="25.56" style="fill:#4f4257"/><path d="M42.26,21.89A17.19,17.19,0,0,0,40.71,15H35.39a17.19,17.19,0,0,0-1.55,6.92Z" style="fill:#4f4257"/><path d="M11.71,26.29V20H6.88v6.31a3.88,3.88,0,0,1-3.41,3.85h0A4,4,0,0,0,0,34.07V61.71a1.74,1.74,0,0,0,1.74,1.75h15.1a1.75,1.75,0,0,0,1.75-1.75V34.07a4,4,0,0,0-3.48-3.93h0A3.88,3.88,0,0,1,11.71,26.29Z" style="fill:#84bd41"/><path d="M15.11,30.14h0a3.88,3.88,0,0,1-3.4-3.85V20H8.32V61.71a1.74,1.74,0,0,1-1.74,1.75H16.84a1.75,1.75,0,0,0,1.75-1.75V34.07A4,4,0,0,0,15.11,30.14Z" style="fill:#67b02e"/><path d="M11.89,25.75H6.7a.49.49,0,0,1-.49-.49V20.47A.49.49,0,0,1,6.7,20h5.19a.49.49,0,0,1,.49.49v4.79A.49.49,0,0,1,11.89,25.75Z" style="fill:#66284f"/><path d="M3.47,30.14h0A4,4,0,0,0,0,34.07V61.71a1.74,1.74,0,0,0,1.74,1.75h15.1a1.75,1.75,0,0,0,1.75-1.75V34.07a4,4,0,0,0-3.48-3.93h0C14.59,30.08,4,30.08,3.47,30.14Z" style="fill:#34642b"/><path d="M18.44,33a4.77,4.77,0,0,0-.26-.66A3.07,3.07,0,0,0,18,32,4,4,0,0,0,16,30.34a4.59,4.59,0,0,0-.85-.2h0c-.29,0-3.72-.05-6.79,0V61.71a1.74,1.74,0,0,1-1.74,1.75H16.84a1.73,1.73,0,0,0,1.11-.4,1.76,1.76,0,0,0,.6-1,2.2,2.2,0,0,0,0-.36V34.07A4.27,4.27,0,0,0,18.44,33Z" style="fill:#375524"/><path d="M15.94,55.64V36.18a1.25,1.25,0,0,0-1.25-1.24H3.89a1.25,1.25,0,0,0-1.25,1.24V55.64a.9.9,0,0,0,.9.9H15.05A.89.89,0,0,0,15.94,55.64Z" style="fill:#f0f0f2"/><path d="M8.32,56.54h6.73a.89.89,0,0,0,.89-.9V36.18a1.25,1.25,0,0,0-1.25-1.24H8.32v21.6Z" style="fill:#c1d7cc"/><circle cx="9.29" cy="40.76" r="3.22" style="fill:#66284f"/><path d="M8.32,43.83a3.12,3.12,0,0,0,1,.15,3.22,3.22,0,1,0,0-6.44,3.12,3.12,0,0,0-1,.15Z" style="fill:#572245"/><path d="M12,54.53H6.62a.95.95,0,1,1,0-1.89H12a.95.95,0,0,1,0,1.89Z" style="fill:#fff"/><rect x="2.64" y="46.63" width="13.3" height="3.38" style="fill:#e84419"/><rect x="8.32" y="46.63" width="7.62" height="3.38" style="fill:#e00914"/><path d="M31.49,58.35a1.2,1.2,0,0,1-.47-1l.62-35.76a2,2,0,0,0-.57-1.48l-3.64-3.76a3,3,0,0,1-.84-2.07V0H20.27V14.28a3,3,0,0,1-.84,2.07l-3.65,3.76a2,2,0,0,0-.57,1.48l.63,35.76a1.21,1.21,0,0,1-.48,1,.84.84,0,0,0-.34.7l.08,3.08a1.37,1.37,0,0,0,1.37,1.33H30.39a1.36,1.36,0,0,0,1.36-1.33l.08-3.08A.81.81,0,0,0,31.49,58.35Z" style="fill:#d8ece5"/><path d="M31.49,58.35a1.2,1.2,0,0,1-.47-1l.62-35.76a2,2,0,0,0-.57-1.48l-3.64-3.76a3,3,0,0,1-.84-2.07V0H20.27V13.91a1.16,1.16,0,0,0,.21.67l3.74,5.53a2,2,0,0,1,.57,1.48l-.63,35.76a1.21,1.21,0,0,0,.48,1,.84.84,0,0,1,.34.7l-.08,3.08a1.37,1.37,0,0,1-1.37,1.33h6.86a1.36,1.36,0,0,0,1.36-1.33l.09-3.08A.85.85,0,0,0,31.49,58.35Z" style="fill:#c1d7cc"/><path d="M26.4,12.3H20.45a.52.52,0,0,1-.52-.53V.52A.52.52,0,0,1,20.45,0H26.4a.52.52,0,0,1,.53.52V11.77A.53.53,0,0,1,26.4,12.3Z" style="fill:#e00914"/><path d="M19.06,28.3a7.59,7.59,0,0,1,8.73,0,.41.41,0,0,0,.63-.32l.07-1.82a1.51,1.51,0,0,0-.93-1.46,10.51,10.51,0,0,0-8.27,0,1.51,1.51,0,0,0-.92,1.46L18.44,28A.4.4,0,0,0,19.06,28.3Z" style="fill:#e84419"/><path d="M27,53.68H19.85a.94.94,0,0,1,0-1.88H27a.94.94,0,1,1,0,1.88Z" style="fill:#fff"/><path d="M27,56.64H19.85a.94.94,0,0,1,0-1.88H27a.94.94,0,1,1,0,1.88Z" style="fill:#fff"/><path d="M27.07,40.23H19.78a.62.62,0,0,1-.61-.61l-.1-5.73a.61.61,0,0,1,.61-.62h7.5a.61.61,0,0,1,.61.62l-.1,5.73A.62.62,0,0,1,27.07,40.23Z" style="fill:#e84419"/><rect x="19.93" y="2.4" width="7" height="1.89" style="fill:#f0f0f2"/><rect x="40.63" y="33.9" width="6.98" height="25.56" style="fill:#3c3140"/><path d="M42.38,41a10.1,10.1,0,0,0-8.66,0,.74.74,0,0,1-.94-.3l-.73-1.23a.75.75,0,0,1,.33-1.06,12.9,12.9,0,0,1,11.34,0,.75.75,0,0,1,.33,1.06c-.24.41-.48.82-.73,1.23A.74.74,0,0,1,42.38,41Z" style="fill:#f0f0f2"/><ellipse cx="38.05" cy="47.39" rx="4.77" ry="3.27" style="fill:#f0f0f2"/><path d="M43,55.81H33.11a.95.95,0,1,1,0-1.89H43a.95.95,0,0,1,0,1.89Z" style="fill:#fff"/><path d="M40.63,44.64v5.49a3.2,3.2,0,0,0,2.19-2.74A3.21,3.21,0,0,0,40.63,44.64Z" style="fill:#c1d7cc"/><path d="M43.72,38.45a14.42,14.42,0,0,0-3.09-1v3a11.46,11.46,0,0,1,1.75.62.74.74,0,0,0,.94-.3c.25-.41.49-.82.73-1.23A.75.75,0,0,0,43.72,38.45Z" style="fill:#c1d7cc"/><path d="M42.26,21.89a17.53,17.53,0,0,0-1.51-6.84h0l0,0,0,0h-4c-.13,2.14-.31,4.72-.47,6.92Z" style="fill:#3c3140"/><path d="M41.26,15.88H34.84a.51.51,0,0,1-.51-.51V9.76a.51.51,0,0,1,.51-.52h6.42a.51.51,0,0,1,.51.52v5.61A.51.51,0,0,1,41.26,15.88Z" style="fill:#4f4257"/><rect x="34.33" y="11.64" width="7.44" height="1.75" style="fill:#f0f0f2"/><path d="M27.18,33.27h-2.6l-.12,7h2.61a.62.62,0,0,0,.62-.61l.1-5.73A.61.61,0,0,0,27.18,33.27Z" style="fill:#e00914"/><path d="M27.56,24.7a10.57,10.57,0,0,0-2.81-.76L24.69,27a8.25,8.25,0,0,1,3.1,1.27.4.4,0,0,0,.62-.32l.08-1.82A1.51,1.51,0,0,0,27.56,24.7Z" style="fill:#e00914"/></g></g></g></g></svg>