<?xml version="1.0" encoding="utf-8"?>
<!-- Generator: Adobe Illustrator 16.0.0, SVG Export Plug-In . SVG Version: 6.00 Build 0)  -->
<!DOCTYPE svg PUBLIC "-//W3C//DTD SVG 1.1//EN" "http://www.w3.org/Graphics/SVG/1.1/DTD/svg11.dtd">
<svg version="1.1" id="artwork" xmlns="http://www.w3.org/2000/svg" xmlns:xlink="http://www.w3.org/1999/xlink" x="0px" y="0px"
	 width="1920px" height="568.889px" viewBox="0 255.556 1920 568.889" enable-background="new 0 255.556 1920 568.889"
	 xml:space="preserve">
<rect y="255.556" fill="#FFFFFF" width="1920" height="568.889"/>
<g>
	<g>
		<g>
			<path d="M429.84,525.359c-0.409-45.762,37.465-68.012,39.198-69.052c-21.452-31.275-54.697-35.545-66.383-35.877
				c-27.92-2.939-55.009,16.69-69.233,16.69c-14.507,0-36.411-16.414-60.02-15.941c-30.381,0.471-58.8,18.077-74.382,45.388
				c-32.169,55.674-8.18,137.523,22.639,182.537c15.416,22.055,33.43,46.662,57.012,45.789
				c23.068-0.943,31.685-14.695,59.521-14.695c27.588,0,35.677,14.695,59.722,14.142c24.759-0.39,40.349-22.14,55.224-44.392
				c17.814-25.258,24.968-50.153,25.252-51.432C477.807,598.322,430.313,580.189,429.84,525.359z"/>
			<path d="M384.411,390.811c12.408-15.52,20.899-36.626,18.542-58.051c-17.959,0.797-40.411,12.421-53.345,27.602
				c-11.444,13.371-21.661,35.288-19.027,55.909C350.758,417.768,371.47,406.08,384.411,390.811z"/>
		</g>
	</g>
	<g>
		<path d="M763.686,691.73h-32.239l-17.662-55.479h-61.378l-16.824,55.479h-31.385l60.81-188.925h37.563L763.686,691.73z
			 M708.461,612.96l-15.97-49.324c-1.692-5.047-4.854-16.914-9.524-35.602h-0.568c-1.857,8.041-4.853,19.908-8.97,35.602
			l-15.686,49.324H708.461z"/>
		<path d="M920.081,621.945c0,23.178-6.259,41.479-18.784,54.926c-11.215,11.964-25.14,17.938-41.763,17.938
			c-17.945,0-30.832-6.432-38.686-19.324h-0.567v71.756h-30.264V600.345c0-14.558-0.382-29.502-1.123-44.832h26.617l1.691,21.598
			h0.568c10.092-16.274,25.41-24.397,45.963-24.397c16.074,0,29.486,6.35,40.218,19.047
			C914.717,584.486,920.081,601.203,920.081,621.945z M889.25,623.054c0-13.254-2.98-24.193-8.977-32.801
			c-6.543-8.955-15.332-13.447-26.347-13.447c-7.466,0-14.251,2.494-20.315,7.432c-6.072,4.961-10.051,11.451-11.909,19.49
			c-0.937,3.742-1.407,6.807-1.407,9.219v22.724c0,9.896,3.043,18.256,9.114,25.092c6.079,6.819,13.968,10.229,23.679,10.229
			c11.402,0,20.274-4.408,26.618-13.17C886.068,649.031,889.25,637.443,889.25,623.054z"/>
		<path d="M1076.763,621.945c0,23.178-6.266,41.479-18.799,54.926c-11.201,11.964-25.119,17.938-41.755,17.938
			c-17.939,0-30.832-6.432-38.664-19.324h-0.568v71.756h-30.264V600.345c0-14.558-0.389-29.502-1.124-44.832h26.618l1.691,21.598
			h0.567c10.078-16.274,25.397-24.397,45.956-24.397c16.054,0,29.475,6.35,40.23,19.047
			C1071.384,584.486,1076.763,601.203,1076.763,621.945z M1045.931,623.054c0-13.254-2.993-24.193-8.982-32.801
			c-6.543-8.955-15.306-13.447-26.339-13.447c-7.487,0-14.252,2.494-20.323,7.432c-6.072,4.961-10.038,11.451-11.896,19.49
			c-0.929,3.742-1.413,6.807-1.413,9.219v22.724c0,9.896,3.035,18.256,9.095,25.092c6.071,6.819,13.96,10.229,23.706,10.229
			c11.396,0,20.268-4.408,26.616-13.17C1042.742,649.031,1045.931,637.443,1045.931,623.054z"/>
		<path d="M1251.938,638.744c0,16.082-5.572,29.154-16.773,39.246c-12.311,11.021-29.446,16.539-51.461,16.539
			c-20.337,0-36.626-3.922-48.964-11.77l7.014-25.218c13.282,8.027,27.865,12.062,43.752,12.062c11.396,0,20.27-2.578,26.646-7.734
			c6.35-5.131,9.511-12.034,9.511-20.629c0-7.68-2.605-14.127-7.847-19.367c-5.214-5.239-13.921-10.104-26.063-14.598
			c-33.077-12.338-49.602-30.416-49.602-54.178c0-15.525,5.795-28.268,17.384-38.179c11.563-9.926,26.978-14.875,46.248-14.875
			c17.188,0,31.469,2.994,42.864,8.97l-7.556,24.676c-10.646-5.794-22.693-8.692-36.169-8.692c-10.646,0-18.966,2.62-24.927,7.861
			c-5.032,4.657-7.555,10.356-7.555,17.106c0,7.459,2.868,13.643,8.663,18.493c5.047,4.492,14.195,9.345,27.49,14.584
			c16.262,6.544,28.185,14.195,35.864,22.957C1248.11,614.749,1251.938,625.687,1251.938,638.744z"/>
		<path d="M1352.001,578.22h-33.354v66.141c0,16.816,5.878,25.217,17.661,25.217c5.406,0,9.898-0.457,13.447-1.387l0.832,22.973
			c-5.962,2.23-13.808,3.354-23.539,3.354c-11.951,0-21.295-3.646-28.032-10.938c-6.724-7.291-10.092-19.52-10.092-36.709v-68.68
			h-19.88v-22.707h19.88v-24.953l29.723-8.956v33.909h33.354V578.22L1352.001,578.22z"/>
		<path d="M1502.526,622.499c0,20.932-5.989,38.122-17.952,51.569c-12.533,13.836-29.169,20.738-49.907,20.738
			c-19.992,0-35.906-6.627-47.772-19.879c-11.867-13.254-17.801-30-17.801-50.17c0-21.113,6.114-38.402,18.354-51.851
			c12.214-13.461,28.711-20.184,49.45-20.184c19.989,0,36.071,6.641,48.216,19.893
			C1496.73,585.511,1502.526,602.119,1502.526,622.499z M1471.112,623.468c0-12.56-2.675-23.316-8.11-32.314
			c-6.35-10.883-15.429-16.289-27.171-16.289c-12.172,0-21.419,5.437-27.754,16.289c-5.448,8.998-8.125,19.949-8.125,32.898
			c0,12.559,2.689,23.33,8.125,32.301c6.543,10.867,15.679,16.303,27.49,16.303c11.548,0,20.613-5.547,27.172-16.58
			C1468.313,646.925,1471.112,636.029,1471.112,623.468z"/>
		<path d="M1600.898,582.128c-2.994-0.556-6.184-0.83-9.537-0.83c-10.646,0-18.883,4.006-24.678,12.061
			c-5.046,7.098-7.568,16.066-7.568,26.896v71.477h-30.249l0.276-93.326c0-15.692-0.375-30-1.137-42.877h26.367l1.109,26.063h0.83
			c3.203-8.972,8.235-16.181,15.141-21.586c6.736-4.867,14.029-7.291,21.875-7.291c2.801,0,5.324,0.192,7.568,0.555v28.859H1600.898
			z"/>
		<path d="M1736.258,617.175c0,5.42-0.359,9.996-1.109,13.725h-90.803c0.36,13.461,4.741,23.762,13.17,30.859
			c7.652,6.336,17.552,9.51,29.709,9.51c13.434,0,25.717-2.135,36.737-6.432l4.741,21.002c-12.895,5.614-28.102,8.414-45.665,8.414
			c-21.127,0-37.708-6.209-49.783-18.634c-12.032-12.42-18.063-29.11-18.063-50.018c0-20.545,5.614-37.65,16.844-51.293
			c11.756-14.57,27.63-21.848,47.62-21.848c19.63,0,34.505,7.276,44.597,21.848C1732.238,585.871,1736.258,600.179,1736.258,617.175
			z M1707.396,609.328c0.193-8.983-1.774-16.719-5.879-23.264c-5.24-8.428-13.281-12.629-24.121-12.629
			c-9.898,0-17.938,4.104-24.095,12.338c-5.032,6.543-8.026,14.404-8.956,23.525h63.051V609.328z"/>
	</g>
	<g>
		<g>
			<path d="M698.452,386.59c0,16.712-5.004,29.293-15.015,37.734c-9.273,7.791-22.442,11.701-39.509,11.701
				c-8.463,0-15.7-0.375-21.765-1.108v-91.296c7.909-1.274,16.427-1.927,25.625-1.927c16.255,0,28.51,3.535,36.766,10.605
				C693.814,360.284,698.452,371.715,698.452,386.59z M682.766,387.006c0-10.834-2.861-19.139-8.602-24.934
				c-5.732-5.773-14.113-8.671-25.141-8.671c-4.687,0-8.672,0.313-11.979,0.963v69.405c1.83,0.292,5.179,0.402,10.051,0.402
				c11.381,0,20.17-3.161,26.36-9.482C679.646,408.355,682.766,399.129,682.766,387.006z"/>
			<path d="M781.63,401.188c0,10.287-2.938,18.715-8.817,25.341c-6.161,6.793-14.326,10.19-24.517,10.19
				c-9.822,0-17.647-3.258-23.477-9.774c-5.823-6.515-8.734-14.75-8.734-24.654c0-10.356,2.995-18.861,9.011-25.468
				c6.024-6.599,14.113-9.904,24.31-9.904c9.821,0,17.718,3.251,23.692,9.767C778.775,383.013,781.63,391.193,781.63,401.188z
				 M766.201,401.665c0-6.169-1.337-11.465-3.992-15.88c-3.126-5.338-7.569-8.006-13.343-8.006c-5.977,0-10.522,2.668-13.642,8.006
				c-2.669,4.415-3.992,9.794-3.992,16.15c0,6.183,1.338,11.479,3.992,15.887c3.224,5.337,7.708,8.014,13.495,8.014
				c5.686,0,10.143-2.719,13.351-8.152C764.822,413.179,766.201,407.842,766.201,401.665z"/>
			<path d="M893.152,368.282l-20.939,66.924h-13.628l-8.679-29.063c-2.196-7.257-3.985-14.466-5.378-21.626h-0.271
				c-1.289,7.354-3.077,14.556-5.379,21.626l-9.211,29.063h-13.78l-19.693-66.924h15.293l7.562,31.81
				c1.831,7.521,3.341,14.694,4.547,21.474h0.263c1.109-5.587,2.939-12.712,5.524-21.328l9.496-31.939h12.124l9.101,31.254
				c2.198,7.625,3.985,14.972,5.365,22.042h0.409c1.012-6.904,2.53-14.231,4.546-22.042l8.118-31.254h14.611V368.282
				L893.152,368.282z"/>
			<path d="M970.28,435.208h-14.884v-38.34c0-11.812-4.484-17.717-13.481-17.717c-4.415,0-7.978,1.622-10.75,4.873
				c-2.738,3.25-4.131,7.084-4.131,11.472v39.684h-14.875v-47.779c0-5.878-0.188-12.248-0.542-19.152h13.073l0.7,10.468h0.409
				c1.733-3.251,4.319-5.935,7.708-8.075c4.035-2.502,8.547-3.764,13.489-3.764c6.245,0,11.444,2.017,15.576,6.058
				c5.144,4.956,7.708,12.352,7.708,22.174L970.28,435.208L970.28,435.208z"/>
			<path d="M1011.301,435.208h-14.859v-97.632h14.859V435.208z"/>
			<path d="M1098.888,401.188c0,10.287-2.938,18.715-8.816,25.341c-6.155,6.793-14.333,10.19-24.51,10.19
				c-9.844,0-17.661-3.258-23.483-9.774c-5.823-6.515-8.734-14.75-8.734-24.654c0-10.356,2.994-18.861,9.012-25.468
				c6.03-6.599,14.112-9.904,24.288-9.904c9.843,0,17.718,3.251,23.72,9.767C1096.032,383.013,1098.888,391.193,1098.888,401.188z
				 M1083.444,401.665c0-6.169-1.331-11.465-3.992-15.88c-3.105-5.338-7.57-8.006-13.323-8.006c-6.003,0-10.536,2.668-13.641,8.006
				c-2.676,4.415-3.993,9.794-3.993,16.15c0,6.183,1.331,11.479,3.993,15.887c3.216,5.337,7.708,8.014,13.488,8.014
				c5.685,0,10.12-2.719,13.337-8.152C1082.086,413.179,1083.444,407.842,1083.444,401.665z"/>
			<path d="M1170.895,435.208h-13.365l-1.109-7.708h-0.4c-4.575,6.128-11.091,9.219-19.548,9.219c-6.321,0-11.437-2.038-15.276-6.06
				c-3.493-3.659-5.24-8.221-5.24-13.641c0-8.166,3.411-14.397,10.273-18.716c6.832-4.318,16.454-6.433,28.849-6.329v-1.254
				c0-8.811-4.617-13.211-13.905-13.211c-6.599,0-12.421,1.656-17.438,4.956l-3.021-9.773c6.21-3.847,13.89-5.773,22.957-5.773
				c17.495,0,26.256,9.227,26.256,27.678v24.642C1169.922,425.919,1170.256,431.242,1170.895,435.208z M1155.449,412.195v-10.313
				c-16.414-0.284-24.621,4.214-24.621,13.488c0,3.48,0.941,6.101,2.855,7.848c1.912,1.747,4.354,2.62,7.266,2.62
				c3.271,0,6.319-1.041,9.094-3.106c2.8-2.064,4.52-4.686,5.156-7.916C1155.366,414.079,1155.449,413.206,1155.449,412.195z"/>
			<path d="M1255.431,435.208h-13.197l-0.693-10.759h-0.416c-4.214,8.18-11.396,12.27-21.487,12.27
				c-8.067,0-14.777-3.175-20.102-9.497c-5.324-6.335-7.985-14.556-7.985-24.643c0-10.834,2.884-19.608,8.679-26.313
				c5.602-6.245,12.478-9.364,20.656-9.364c8.983,0,15.263,3.022,18.854,9.088h0.276v-38.415h14.89v79.596
				C1254.903,423.687,1255.069,429.69,1255.431,435.208z M1240.015,406.976v-11.153c0-1.934-0.139-3.494-0.416-4.686
				c-0.832-3.577-2.634-6.592-5.38-9.019c-2.771-2.426-6.099-3.646-9.953-3.646c-5.545,0-9.896,2.197-13.087,6.613
				c-3.16,4.416-4.769,10.051-4.769,16.94c0,6.619,1.524,11.971,4.574,16.103c3.217,4.408,7.568,6.599,13.005,6.599
				c4.879,0,8.788-1.83,11.756-5.49C1238.6,415.826,1240.015,411.752,1240.015,406.976z"/>
			<path d="M1382.666,401.188c0,10.287-2.939,18.715-8.817,25.341c-6.154,6.793-14.307,10.19-24.51,10.19
				c-9.814,0-17.635-3.258-23.483-9.774c-5.822-6.515-8.733-14.75-8.733-24.654c0-10.356,2.994-18.861,9.011-25.468
				c6.018-6.599,14.112-9.904,24.315-9.904c9.814,0,17.718,3.251,23.679,9.767C1379.811,383.013,1382.666,391.193,1382.666,401.188z
				 M1367.249,401.665c0-6.169-1.33-11.465-3.991-15.88c-3.134-5.338-7.568-8.006-13.365-8.006c-5.959,0-10.493,2.668-13.641,8.006
				c-2.661,4.415-3.979,9.794-3.979,16.15c0,6.183,1.33,11.479,3.979,15.887c3.229,5.337,7.708,8.014,13.503,8.014
				c5.685,0,10.147-2.719,13.363-8.152C1365.864,413.179,1367.249,407.842,1367.249,401.665z"/>
			<path d="M1462.655,435.208h-14.86v-38.34c0-11.812-4.492-17.717-13.503-17.717c-4.408,0-7.972,1.622-10.729,4.873
				c-2.744,3.25-4.132,7.084-4.132,11.472v39.684h-14.89v-47.779c0-5.878-0.166-12.248-0.526-19.152h13.06l0.693,10.468h0.415
				c1.747-3.251,4.326-5.935,7.708-8.075c4.049-2.502,8.54-3.764,13.504-3.764c6.237,0,11.423,2.017,15.555,6.058
				c5.157,4.956,7.707,12.352,7.707,22.174L1462.655,435.208L1462.655,435.208z"/>
			<path d="M1562.773,379.423h-16.371v32.509c0,8.263,2.897,12.394,8.665,12.394c2.676,0,4.88-0.234,6.627-0.692l0.388,11.284
				c-2.938,1.108-6.793,1.649-11.548,1.649c-5.878,0-10.452-1.773-13.767-5.352c-3.313-3.577-4.963-9.593-4.963-18.05v-33.743
				h-9.787v-11.14h9.787v-12.269l14.584-4.401v16.657h16.385V379.423L1562.773,379.423z"/>
			<path d="M1641.546,435.208h-14.89v-38.055c0-11.992-4.491-18.001-13.475-18.001c-6.903,0-11.617,3.48-14.195,10.439
				c-0.444,1.456-0.694,3.244-0.694,5.352v40.237h-14.86v-97.604h14.86v40.328h0.277c4.686-7.341,11.396-11.001,20.103-11.001
				c6.155,0,11.256,2.018,15.305,6.059c5.047,5.04,7.569,12.539,7.569,22.443V435.208L1641.546,435.208z"/>
			<path d="M1722.783,398.573c0,2.668-0.193,4.908-0.555,6.745h-44.61c0.192,6.612,2.327,11.646,6.46,15.138
				c3.77,3.134,8.636,4.687,14.598,4.687c6.612,0,12.629-1.054,18.049-3.161l2.315,10.342c-6.335,2.745-13.808,4.131-22.458,4.131
				c-10.356,0-18.521-3.05-24.428-9.163c-5.934-6.113-8.871-14.294-8.871-24.572c0-10.092,2.744-18.5,8.262-25.196
				c5.768-7.153,13.559-10.737,23.4-10.737c9.621,0,16.94,3.583,21.877,10.737C1720.814,383.199,1722.783,390.229,1722.783,398.573z
				 M1708.587,394.728c0.111-4.416-0.858-8.221-2.883-11.431c-2.579-4.132-6.517-6.203-11.839-6.203
				c-4.854,0-8.817,2.017-11.84,6.063c-2.469,3.225-3.938,7.071-4.407,11.569L1708.587,394.728L1708.587,394.728z"/>
		</g>
	</g>
</g>
</svg>
