<?xml version="1.0" encoding="utf-8"?>
<!-- Generator: Adobe Illustrator 23.0.3, SVG Export Plug-In . SVG Version: 6.00 Build 0)  -->
<svg version="1.1" id="Calque_1" xmlns="http://www.w3.org/2000/svg" xmlns:xlink="http://www.w3.org/1999/xlink" x="0px" y="0px"
	 viewBox="0 0 24.5 54.5" style="enable-background:new 0 0 24.5 54.5;" xml:space="preserve">
<style type="text/css">
	.st0{fill:#F7C830;}
	.st1{fill:#EDEDED;}
	.st2{fill:#384956;}
</style>
<title>biere</title>
<g>
	<g>
		<g>
			<path class="st0" d="M21.2,34.8c4.2-16.6,2.8-27,2.8-27l-3.9,1.4c-0.8,0.1-2.3-1-3.1-1L16.4,12c-0.1,1.6,0.8,1.3-0.8,1.3
				c-1.4-0.1-1.2-0.1-1.3-1.6l-1.4-3c-2-0.1-4.8-0.9-6.8-1.3L2.7,7.6c0,0-1.3,10.6,2.9,27.2c0,0,2.1,11-0.4,16
				c-0.5,0.8-0.2,1.9,0.7,2.4c0,0,0,0,0.1,0c0.7,0.3,1.4,0.6,2.1,0.8c1.6,0.4,3.3,0.6,5,0.6h0.7c1.7,0,3.3-0.2,4.9-0.6
				c0.7-0.2,1.4-0.4,2.1-0.7c0.9-0.5,1.2-1.5,0.7-2.4l0,0C19,45.8,21.2,34.8,21.2,34.8z"/>
			<path class="st1" d="M20.7,2.8c-1.6,0-2.8,1.3-2.8,2.8V3.8c0-2.1-1.7-3.8-3.8-3.8s-3.8,0.8-3.8,2.8v0.9c0-1.6-1.3-2.8-2.8-2.8
				c-3,0-2.8,3.2-2.8,4.7V4.7c-0.3-1.5-1-1.9-2.1-1.9C1.1,2.9,0,4.1,0,5.6l0,0v4.7c-0.1,1.5,0.9,2.8,2.5,2.9l0.1,0l0-0.5
				c0-1.6,0.1-2.7,0.3-4.3l3,0.6c2,0.4,4.1,0.6,6.2,0.7v3.5c0,1.6,1.3,2.8,2.8,2.8c1.6,0,2.8-1.3,2.8-2.8l0,0V9.5
				c0.8-0.1,1.7-0.2,2.5-0.3L24,8.5c0.1,1.3,0.2,2.5,0.2,3.8l0,0l0.2-6.6C24.5,4.1,22.2,2.8,20.7,2.8z"/>
			<path class="st2" d="M18.8,29.6c0,4.4-2.3,10.8-5.2,10.8S8.5,34,8.5,29.6s2.3-9.9,5.2-9.9S18.8,25.2,18.8,29.6z"/>
			<path class="st2" d="M12.9,49.4h0.8c1.8,0,3.6-0.2,5.4-0.6c0.6-0.2,1.1-0.3,1.6-0.4c-0.1-0.3-0.1-0.6-0.2-0.9
				c-0.5,0.2-1.1,0.3-1.8,0.5c-1.7,0.4-3.4,0.6-5.1,0.6h-0.8c-1.7,0-3.4-0.2-5.1-0.6c-0.6-0.2-1.1-0.3-1.6-0.5
				c0,0.3-0.1,0.6-0.2,0.9c0.4,0.1,0.9,0.3,1.5,0.4C9.3,49.2,11.1,49.4,12.9,49.4z"/>
		</g>
	</g>
</g>
</svg>
