<svg xmlns="http://www.w3.org/2000/svg" viewBox="0 0 57 61.64"><title>cocktail</title><g id="Calque_2" data-name="Calque 2"><g id="Layer_1" data-name="Layer 1"><path d="M43,18.29a.93.93,0,0,1-.4-.09A.92.92,0,0,1,42.16,17l3.34-6.82a.91.91,0,1,1,1.63.8L43.8,17.78A.92.92,0,0,1,43,18.29Z" style="fill:#5d97d1"/><path d="M48.74,4.42,35.27,6a.34.34,0,0,0-.16.61A61.88,61.88,0,0,0,56.58,16.69a.33.33,0,0,0,.36-.51L49.56,4.8A.86.86,0,0,0,48.74,4.42Z" style="fill:#eb5a3e"/><path d="M56.94,16.18,49.56,4.8a.86.86,0,0,0-.82-.38l-2.65.31a2.69,2.69,0,0,0-1.94,4.14l3,4.62a60.86,60.86,0,0,0,9.43,3.2A.33.33,0,0,0,56.94,16.18Z" style="fill:#df2214"/><circle cx="40.6" cy="21.56" r="8.15" style="fill:#ffd300"/><path d="M40.6,13.41a8.08,8.08,0,0,0-3.43.76,8.14,8.14,0,0,1,0,14.78A8.15,8.15,0,1,0,40.6,13.41Z" style="fill:#f1c100"/><circle cx="40.6" cy="21.56" r="5.63" style="fill:#ffe9bd"/><path d="M40.6,23.37a.91.91,0,0,0-.91.91v.4a.91.91,0,1,0,1.82,0v-.4A.91.91,0,0,0,40.6,23.37Z" style="fill:#ffd300"/><path d="M40.6,17.54a.91.91,0,0,0-.91.91v.39a.91.91,0,0,0,1.82,0v-.39A.91.91,0,0,0,40.6,17.54Z" style="fill:#ffd300"/><path d="M38.79,21.56a.91.91,0,0,0-.91-.91h-.39a.91.91,0,1,0,0,1.82h.39A.91.91,0,0,0,38.79,21.56Z" style="fill:#ffd300"/><path d="M43.72,20.65h-.4a.91.91,0,1,0,0,1.82h.4a.91.91,0,1,0,0-1.82Z" style="fill:#ffd300"/><path d="M39,18.72a.91.91,0,0,0-1.29,0,.92.92,0,0,0,0,1.29l.28.28A.91.91,0,0,0,39.32,19Z" style="fill:#ffd300"/><path d="M43.17,22.84a.91.91,0,0,0-1.29,1.29l.28.28a.93.93,0,0,0,1.29,0,.92.92,0,0,0,0-1.29Z" style="fill:#ffd300"/><path d="M42.52,20.55a.91.91,0,0,0,.65-.27l.28-.28a.92.92,0,0,0,0-1.29.91.91,0,0,0-1.29,0l-.28.27a.92.92,0,0,0,.64,1.56Z" style="fill:#ffd300"/><path d="M38,22.84l-.28.28a.92.92,0,0,0,0,1.29.93.93,0,0,0,1.29,0l.28-.28A.91.91,0,0,0,38,22.84Z" style="fill:#ffd300"/><path d="M23.9,24.24a90.38,90.38,0,0,1-7.37-23,.21.21,0,0,0-.41,0C15,8,13.73,17.53,12.64,24.24Z" style="fill:#84bd41"/><path d="M21.27,24.24,5.4.09A.21.21,0,0,0,5,.27l7.76,24Z" style="fill:#6ab42d"/><path d="M20.28,24.24C16.8,21.22,5.07,11.36.39,11.64a.41.41,0,0,0-.24.72c1.91,1.6,7.48,6.5,10.36,11.88Z" style="fill:#84bd41"/><path d="M23.59,24.24c-1.68-6.48.84-15.7,1.68-18.46a.41.41,0,0,0-.6-.47c-4.8,2.75-8.77,18.93-8.77,18.93Z" style="fill:#6ab42d"/><path d="M25.41,22.92c-5.41,0-10.34-.24-14.07-.63A2.16,2.16,0,0,0,9.06,23.8c-2,6.42-7.23,27.54,6.48,36.26a10.32,10.32,0,0,0,6.57,1.53l2.24-.23a10.63,10.63,0,0,1,2.11,0l2.24.23a10.32,10.32,0,0,0,6.57-1.53C49,51.34,43.73,30.22,41.75,23.8a2.16,2.16,0,0,0-2.28-1.51C35.74,22.68,30.81,22.92,25.41,22.92Z" style="fill:#f49600"/><path id="SVGCleanerId_0" data-name="SVGCleanerId 0" d="M41.75,23.8a2.16,2.16,0,0,0-2.28-1.51c-1.41.15-3,.27-4.69.37,1.51,4.49,8.57,28.06-6.11,37.4a10,10,0,0,1-2.93,1.26c.24,0,.48,0,.72,0l2.24.23a10.32,10.32,0,0,0,6.57-1.53C49,51.34,43.73,30.22,41.75,23.8Z" style="fill:#e47c08"/><path id="SVGCleanerId_0-2" data-name="SVGCleanerId 0" d="M41.75,23.8a2.16,2.16,0,0,0-2.28-1.51c-1.41.15-3,.27-4.69.37,1.51,4.49,8.57,28.06-6.11,37.4a10,10,0,0,1-2.93,1.26c.24,0,.48,0,.72,0l2.24.23a10.32,10.32,0,0,0,6.57-1.53C49,51.34,43.73,30.22,41.75,23.8Z" style="fill:#e47c08"/><path d="M44,43.1l-4.92-4.92L43.9,33.4c0-.12,0-.24,0-.36a.88.88,0,0,1,0-.17l-.06-.34,0-.17-.18-1.06a1.7,1.7,0,0,1,0-.22,2.56,2.56,0,0,1-.05-.27c0-.08,0-.16,0-.24a2.21,2.21,0,0,0,0-.25c0-.15-.05-.29-.08-.43h0l-4.56-4.54H42.2c-.16-.58-.31-1.1-.45-1.55a2.16,2.16,0,0,0-2.28-1.51c-3.73.39-8.66.63-14.06.63s-10.34-.24-14.07-.63A2.16,2.16,0,0,0,9.06,23.8c-.14.45-.29,1-.45,1.55h3.27l-.35.36-4,4h0c0,.13,0,.27-.08.41v.07c0,.14-.06.27-.08.41v.06C7.22,31.4,7.09,32.2,7,33H7c0,.17,0,.34-.07.51h0l4.64,4.64L6.61,43.1l-.1-.1h0c.07,1,.19,2,.35,3l4.67,4.68L9.14,53.05h0c.21.41.44.8.68,1.19a.57.57,0,0,0,.08.13l.21.34h0L12.85,52l4.92,4.92L15,59.69h0l.56.37h0l.32.2.12.06.22.12.13.07.31.15,2.45-2.45,3.34,3.34,1.19-.12.73-.07.49,0L20.4,56.89,25.33,52l4.92,4.92-4.43,4.43h.23l.41,0,1.77.18,3.33-3.33,2.51,2.5h0l.23-.11.12-.06.2-.1a1,1,0,0,0,.17-.1l.15-.08.33-.2h0l.47-.31-2.86-2.86L37.8,52l2.62,2.62.22.22c.35-.54.68-1.09,1-1.66l-2.5-2.49L44,45.79c0-.24.08-.48.11-.73,0,0,0-.05,0-.07,0-.22.06-.44.08-.67v0c0-.23.05-.47.07-.7h0l.06-.74ZM42.72,31.94,37.8,36.87l-4.92-4.93L37.8,27Zm-6.24,6.24-.37.37h0L31.56,43.1l-4.92-4.92,4.92-4.92Zm.29-12.83-.48.55-4.73,4.73-5.28-5.28Zm-6.52,6.59-4.92,4.93L20.4,31.94,25.33,27ZM24,38.18,19.09,43.1l-4.92-4.92,4.92-4.92Zm.28-12.83c-.6.63-1.18,1.26-1.18,1.26l-4,4-5.28-5.28H24.29ZM7.93,31.94,12.85,27l4.92,4.92-4.92,4.93Zm4.92,17.4L7.93,44.42l4.92-4.92,4.92,4.92Zm6.24,6.24-4.92-4.92,4.92-4.93L24,50.66ZM20.4,44.42l4.93-4.92,4.92,4.92-4.92,4.92ZM31.56,55.58l-4.92-4.92,4.92-4.93,4.92,4.93Zm6.24-6.24-4.92-4.92,4-4,.12-.1.81-.81,4.92,4.92Z" style="fill:#ffe9bd"/><path d="M38.87,22.35l-1,.09h-.11l-1.07.09H36.6l-1.15.08h-.07l-.6,0c.2.59.49,1.51.82,2.69h1.17l-.48.55-.42.43c.17.65.34,1.35.51,2.11L37.8,27l4.92,4.92L37.8,36.87l-.14-.14c.07.91.12,1.84.14,2.77h0l4.92,4.92L37.8,49.34l-1-1c-.18.68-.38,1.35-.62,2l.27.27-.59.58a18.33,18.33,0,0,1-7.23,8.82,10,10,0,0,1-2.81,1.22l0,0h.24l.39,0h0l1.77.18,3.33-3.33,2.51,2.5h0l.23-.11.06,0,.06,0,.2-.1a1,1,0,0,0,.17-.1l.15-.08.33-.2h0l.47-.31-2.86-2.86L37.8,52l2.62,2.62.22.22c.35-.54.68-1.09,1-1.66l-2.5-2.49L44,45.79c0-.24.08-.48.11-.73,0,0,0-.05,0-.07,0-.22.06-.44.08-.67v0c0-.23.05-.47.07-.7h0l.06-.74L44,43.1l-4.92-4.92L43.9,33.4c0-.12,0-.24,0-.36a.88.88,0,0,1,0-.17l-.06-.34,0-.17-.18-1.06a1.7,1.7,0,0,1,0-.22,2.56,2.56,0,0,1-.05-.27c0-.08,0-.16,0-.24a2.21,2.21,0,0,0,0-.25c0-.15-.05-.29-.08-.43h0l-4.56-4.54H42.2c-.16-.58-.31-1.1-.45-1.55a2.15,2.15,0,0,0-1.9-1.51h-.38l-.48.05Z" style="fill:#f3d7ab"/></g></g></svg>