<?xml version="1.0" encoding="utf-8"?>
<!-- Generator: Adobe Illustrator 16.0.0, SVG Export Plug-In . SVG Version: 6.00 Build 0)  -->
<!DOCTYPE svg PUBLIC "-//W3C//DTD SVG 1.1//EN" "http://www.w3.org/Graphics/SVG/1.1/DTD/svg11.dtd">
<svg version="1.1" id="artwork" xmlns="http://www.w3.org/2000/svg" xmlns:xlink="http://www.w3.org/1999/xlink" x="0px" y="0px"
	 width="1920px" height="568.889px" viewBox="0 255.556 1920 568.889" enable-background="new 0 255.556 1920 568.889"
	 xml:space="preserve">
<g>
	<rect y="255.556" fill="#FFFFFF" stroke="#FFFFFF" stroke-width="0.2" stroke-miterlimit="10" width="1920" height="568.889"/>
	<g>
		<path d="M674.133,400.621c0,11.379-2.844,21.333-9.955,28.444c-8.533,8.533-18.488,12.8-31.289,12.8
			c-12.8,0-22.756-4.267-31.289-12.8s-12.8-18.489-12.8-31.289s4.268-22.756,12.8-31.289c8.533-8.533,18.489-12.8,31.289-12.8
			c5.689,0,11.378,1.422,17.066,4.267c5.689,2.846,9.956,5.688,12.801,9.955l-7.111,7.111c-5.688-7.111-12.8-9.955-22.756-9.955
			c-8.533,0-17.065,2.844-22.755,9.955c-7.11,5.689-9.956,14.223-9.956,24.178c0,9.956,2.846,18.489,9.956,24.179
			c7.11,5.688,14.222,9.955,22.755,9.955c9.956,0,17.066-2.845,24.178-9.955c4.268-4.268,7.111-9.955,7.111-17.066h-31.289v-11.378
			h41.245C674.133,396.356,674.133,399.198,674.133,400.621z"/>
		<path d="M739.556,365.067h-38.399v27.021h35.556v9.956h-35.556v27.021h38.399v11.378h-49.777V355.11h49.777V365.067z"/>
		<path d="M786.489,440.445h-11.378v-75.378h-24.178v-9.956h59.732v9.956h-24.178L786.489,440.445L786.489,440.445z"/>
		<path d="M851.911,440.445v-85.334h11.378v85.334H851.911z"/>
		<path d="M911.645,440.445h-11.377v-75.378h-24.179v-9.956H934.4v9.956h-24.179v75.378H911.645z"/>
		<path d="M1046.756,429.067c-8.533,8.533-18.489,12.8-31.289,12.8s-22.756-4.267-31.289-12.8s-12.8-18.489-12.8-31.289
			s4.267-22.756,12.8-31.289s18.489-12.8,31.289-12.8s22.756,4.267,31.289,12.8s12.8,18.489,12.8,31.289
			S1055.289,420.532,1046.756,429.067z M992.711,421.954c5.689,5.688,14.223,9.955,22.756,9.955s17.066-2.844,22.756-9.955
			c5.688-5.688,9.955-14.223,9.955-24.178c0-9.956-2.845-18.489-9.955-24.178c-5.688-5.689-14.223-9.956-22.756-9.956
			s-17.065,2.845-22.756,9.956c-5.688,5.688-9.955,14.222-9.955,24.178S985.6,416.267,992.711,421.954z"/>
		<path d="M1075.2,440.445v-85.334h12.8l41.244,66.845l0,0V404.89v-49.778h11.378v85.334h-11.378l-44.089-69.688l0,0v17.065v52.623
			L1075.2,440.445L1075.2,440.445z"/>
	</g>
	<path d="M968.533,565.6c-34.133,0-61.155,25.6-61.155,61.155c0,34.134,27.022,61.154,61.155,61.154
		c34.134,0,61.156-25.6,61.156-61.154C1029.689,589.778,1002.667,565.6,968.533,565.6z M968.533,662.311
		c-18.488,0-34.133-15.646-34.133-36.979s15.645-36.978,34.133-36.978s34.134,14.222,34.134,36.978
		C1002.667,646.666,987.021,662.311,968.533,662.311z M836.268,565.6c-34.135,0-61.155,25.6-61.155,61.155
		c0,34.134,27.021,61.154,61.155,61.154c34.134,0,61.154-25.6,61.154-61.154C897.422,589.778,870.4,565.6,836.268,565.6z
		 M836.268,662.311c-18.489,0-34.135-15.646-34.135-36.979s15.646-36.978,34.135-36.978c18.488,0,34.134,14.222,34.134,36.978
		C870.4,646.666,854.756,662.311,836.268,662.311z M678.4,584.089v25.6h61.154c-1.423,14.222-7.11,25.6-14.223,32.711
		c-8.533,8.533-22.755,18.489-46.933,18.489c-38.4,0-66.846-29.867-66.846-68.268c0-38.399,29.866-68.267,66.846-68.267
		c19.911,0,35.555,8.533,46.933,18.488l18.489-18.488c-15.646-14.223-35.557-25.601-64-25.601c-51.2,0-95.289,42.667-95.289,93.866
		s44.089,93.866,95.289,93.866c28.443,0,48.354-8.533,65.422-27.021C762.311,642.4,768,618.222,768,599.733
		c0-5.688,0-11.377-1.422-15.644H678.4z M1324.089,604c-5.688-14.224-19.911-38.4-51.2-38.4S1216,589.778,1216,626.755
		c0,34.134,25.6,61.154,59.733,61.154c27.021,0,44.089-17.065,49.776-27.021l-19.911-14.223
		c-7.109,9.955-15.645,17.065-29.865,17.065c-14.224,0-22.757-5.688-29.866-18.488l81.066-34.134L1324.089,604z M1241.6,623.909
		c0-22.755,18.489-35.555,31.289-35.555c9.956,0,19.911,5.688,22.756,12.8L1241.6,623.909z M1174.756,682.222h27.021V504.445
		h-27.021V682.222z M1132.089,578.4L1132.089,578.4c-7.11-7.111-18.489-14.222-32.711-14.222c-29.867,0-58.312,27.021-58.312,61.154
		s27.021,59.733,58.312,59.733c14.222,0,25.6-7.111,31.289-14.223h1.422v8.533c0,22.756-12.8,35.556-32.711,35.556
		c-15.646,0-27.022-11.378-29.867-21.333l-22.755,9.955c7.11,15.645,24.178,35.556,54.044,35.556
		c31.289,0,56.89-18.488,56.89-62.577V568.445h-25.601V578.4L1132.089,578.4z M1100.8,662.311
		c-18.487,0-34.133-15.646-34.133-36.979s15.646-36.978,34.133-36.978c18.489,0,32.712,15.645,32.712,36.978
		C1133.511,646.666,1119.289,662.311,1100.8,662.311z M1447.822,504.445h-64v177.777h27.021v-66.845h36.979
		c29.867,0,58.312-21.334,58.312-55.468C1506.134,525.778,1477.689,504.445,1447.822,504.445z M1449.244,589.778h-38.399v-61.154
		h38.399c19.911,0,31.289,17.065,31.289,29.865C1479.111,574.133,1467.733,589.778,1449.244,589.778z M1612.8,564.178
		c-19.911,0-39.821,8.533-46.933,27.021l24.178,9.956c5.688-9.956,14.223-12.8,24.178-12.8c14.223,0,27.021,8.533,28.443,22.755
		v1.423c-4.266-2.845-15.645-7.11-27.021-7.11c-25.6,0-51.199,14.222-51.199,39.821c0,24.179,21.333,39.822,44.089,39.822
		c18.487,0,27.022-8.533,34.133-17.065h1.423v14.222h25.602v-68.268C1666.844,582.666,1642.666,564.178,1612.8,564.178z
		 M1609.955,662.311c-8.533,0-21.333-4.268-21.333-15.646c0-14.222,15.646-18.487,28.444-18.487c11.377,0,17.065,2.844,24.178,5.688
		C1638.4,650.933,1624.178,662.311,1609.955,662.311z M1759.289,568.445l-29.867,76.8H1728l-31.289-76.8h-28.443l46.934,108.089
		l-27.021,59.733h27.021l72.533-167.822H1759.289L1759.289,568.445z M1520.355,682.222h27.021V504.445h-27.021V682.222z"/>
	<g>
		
			<linearGradient id="SVGID_1_" gradientUnits="userSpaceOnUse" x1="-53.0732" y1="207.4514" x2="-69.8556" y2="190.669" gradientTransform="matrix(14.2222 0 0 -14.2222 1064.7952 3329.7786)">
			<stop  offset="0" style="stop-color:#00A0FF"/>
			<stop  offset="0.0066" style="stop-color:#00A1FF"/>
			<stop  offset="0.2601" style="stop-color:#00BEFF"/>
			<stop  offset="0.5122" style="stop-color:#00D2FF"/>
			<stop  offset="0.7604" style="stop-color:#00DFFF"/>
			<stop  offset="1" style="stop-color:#00E3FF"/>
		</linearGradient>
		<path fill="url(#SVGID_1_)" d="M147.911,362.222c-4.268,4.267-5.689,11.378-5.689,19.911v314.312
			c0,8.533,2.844,15.645,7.111,19.911l1.422,1.422L327.11,541.423V540v-1.424L147.911,362.222L147.911,362.222z"/>
		
			<linearGradient id="SVGID_2_" gradientUnits="userSpaceOnUse" x1="-41.0342" y1="196.1072" x2="-65.2311" y2="196.1072" gradientTransform="matrix(14.2222 0 0 -14.2222 1064.7952 3329.7786)">
			<stop  offset="0" style="stop-color:#FFE000"/>
			<stop  offset="0.4087" style="stop-color:#FFBD00"/>
			<stop  offset="0.7754" style="stop-color:#FFA500"/>
			<stop  offset="1" style="stop-color:#FF9C00"/>
		</linearGradient>
		<path fill="url(#SVGID_2_)" d="M384,601.156l-58.312-58.312V540v-1.424L384,480.267l1.422,1.422l69.689,39.822
			c19.91,11.378,19.91,29.866,0,41.244L384,601.156L384,601.156z"/>
		
			<linearGradient id="SVGID_3_" gradientUnits="userSpaceOnUse" x1="-50.0518" y1="193.8728" x2="-72.81" y2="171.1145" gradientTransform="matrix(14.2222 0 0 -14.2222 1064.7952 3329.7786)">
			<stop  offset="0" style="stop-color:#FF3A44"/>
			<stop  offset="1" style="stop-color:#C31162"/>
		</linearGradient>
		<path fill="url(#SVGID_3_)" d="M385.422,599.733L325.688,540L147.911,717.778c7.111,7.111,17.066,7.111,29.867,1.422
			L385.422,599.733"/>
		
			<linearGradient id="SVGID_4_" gradientUnits="userSpaceOnUse" x1="-67.6055" y1="215.9451" x2="-57.4434" y2="205.7832" gradientTransform="matrix(14.2222 0 0 -14.2222 1064.7952 3329.7786)">
			<stop  offset="0" style="stop-color:#32A071"/>
			<stop  offset="0.0685" style="stop-color:#2DA771"/>
			<stop  offset="0.4762" style="stop-color:#15CF74"/>
			<stop  offset="0.8009" style="stop-color:#06E775"/>
			<stop  offset="1" style="stop-color:#00F076"/>
		</linearGradient>
		<path fill="url(#SVGID_4_)" d="M385.422,480.267L177.778,362.222c-12.801-7.111-22.756-5.688-29.867,1.422L325.688,540
			L385.422,480.267z"/>
		<g>
			<path opacity="0.2" enable-background="new    " d="M384,598.311L177.778,714.933c-11.379,7.111-21.334,5.688-28.444,0l0,0
				l-1.422,1.423l0,0l1.422,1.422l0,0c7.11,5.688,17.065,7.111,28.444,0L384,598.311L384,598.311z"/>
			<path opacity="0.12" enable-background="new    " d="M147.911,714.933c-4.268-4.268-5.689-11.378-5.689-19.911v1.423
				c0,8.533,2.844,15.645,7.111,19.911v-1.423H147.911z"/>
		</g>
		<path opacity="0.12" enable-background="new    " d="M455.111,558.489L384,598.311l1.422,1.422l69.689-39.822
			c9.955-5.688,14.222-12.8,14.222-19.91l0,0C469.333,547.111,463.645,552.8,455.111,558.489z"/>
		<path opacity="0.25" fill="#FFFFFF" enable-background="new    " d="M177.778,363.644l277.333,157.867
			c8.533,5.688,14.222,11.378,14.222,18.489l0,0c0-7.111-4.267-14.224-14.222-19.911L177.778,362.222
			c-19.911-11.378-35.557-2.845-35.557,19.911v1.422C142.222,362.222,157.867,352.267,177.778,363.644z"/>
	</g>
</g>
</svg>
