<?xml version="1.0" encoding="utf-8"?>
<!-- Generator: Adobe Illustrator 16.0.0, SVG Export Plug-In . SVG Version: 6.00 Build 0)  -->
<!DOCTYPE svg PUBLIC "-//W3C//DTD SVG 1.1//EN" "http://www.w3.org/Graphics/SVG/1.1/DTD/svg11.dtd">
<svg version="1.1" id="Calque_1" xmlns="http://www.w3.org/2000/svg" xmlns:xlink="http://www.w3.org/1999/xlink" x="0px" y="0px"
	 width="433.426px" height="58.959px" viewBox="0 0 433.426 58.959" enable-background="new 0 0 433.426 58.959"
	 xml:space="preserve">
<g>
	<g>
		<path fill="#FFFFFF" d="M79.113,17.461l3.779-12.151l-3.481,2.342c0.107,0.161,0.177,0.345,0.202,0.539
			c0.087,0.685-0.397,1.31-1.081,1.396c-0.685,0.088-1.31-0.396-1.397-1.081c-0.086-0.684,0.398-1.309,1.083-1.395L77.557,1.96
			l-2.841,4.007c0.223,0.157,0.399,0.368,0.516,0.613c0.375,0.791,0.038,1.734-0.752,2.109c-0.79,0.375-1.735,0.038-2.11-0.751
			c-0.375-0.791-0.037-1.735,0.753-2.11L70.346,0l-1.833,6.197c0.262,0.077,0.497,0.218,0.687,0.413
			c0.612,0.625,0.602,1.627-0.024,2.239s-1.627,0.6-2.239-0.024c-0.612-0.625-0.6-1.628,0.025-2.239l-3.433-3.511l0.154,5.19
			c0.195-0.006,0.388,0.033,0.563,0.116c0.627,0.29,0.898,1.032,0.609,1.657c-0.29,0.625-1.034,0.897-1.658,0.607
			c-0.626-0.29-0.898-1.032-0.607-1.657l-3.806-1.767l5.655,11.4L79.113,17.461z M76.501,12.18l0.573-0.911l0.716,0.808l0.711,0.804
			l-0.575,0.911l-0.581,0.905l-0.709-0.804l-0.716-0.809L76.501,12.18z M70.377,11.93l0.811-1.271l1,1.128l0.996,1.133l-0.807,1.27
			l-0.81,1.275l-1.001-1.132l-0.995-1.128L70.377,11.93z M64.889,13.097l0.58-0.911l0.71,0.81l0.717,0.803l-0.581,0.911
			l-0.575,0.906l-0.716-0.804l-0.709-0.809L64.889,13.097z"/>
	</g>
	<path fill="#FFFFFF" d="M21.878,55.126c0.049,0,0.098,0,0.098,0c0.535,0,0.34,0.292,0.34,0.633
		c-0.047,0.34,0.098,1.117,0.098,1.701c0,0.633-0.633,0.486-1.41,0.486c-0.826,0-5.688-0.438-7.391-0.438
		c-1.651,0-11.474,0.438-12.3,0.438s-1.07-0.486-1.07-0.973c0-0.389,0-1.799,0-3.793c0-1.75,0.195-14.73,0.195-16.287
		C0.438,35.339,0,25.565,0,24.204c0-0.633,0.242-0.826,0.632-0.826c0.487,0,1.119,0.291,1.75,0.291
		c0.681,0.098,1.945,0.195,3.258,0.195c0.874,0,1.702-0.049,2.479-0.146c1.945-0.242,1.166,1.07,1.166,2.236
		c0,0.827-0.291,6.467-0.291,8.606c0,2.139,0.146,10.015,0.146,10.939c0,0.874-0.098,4.473-0.098,5.299
		c0,0.194-0.049,0.584-0.049,0.973c0,0.437,0.049,0.876,0.049,1.36l0.098,1.703l6.952,0.242L21.878,55.126z"/>
	<path fill="#FFFFFF" d="M24.841,51.82c0.146-0.778,0.535-2.237,0.924-3.55c0.389-1.361,1.313-4.181,1.556-5.591
		c0.341-1.507,1.021-3.501,1.265-4.619c0.242-1.167,0.924-3.549,1.313-5.007c0.438-1.41,0.777-2.674,1.117-3.404
		c0.244-0.729,1.266-3.451,1.51-4.765c0.387-1.36,0.776-2.333,1.7-2.333c0.438,0,0.778,1.068,1.313,2.43
		c0.534,1.265,1.506,5.203,1.75,5.98c0.146,0.875,2.285,6.564,2.527,7.439c0.39,0.973,2.091,5.736,2.627,6.952
		c0.387,1.167,1.603,4.716,1.992,6.224c0.389,1.555,1.701,4.667,1.945,5.299c0.098,0.244,0.145,0.39,0.145,0.486
		c0,0.146-0.096,0.195-0.535,0.195h-2.721c-0.244,0-0.391-0.049-0.535-0.438c-0.244-0.633-0.389-1.216-0.535-1.751
		c-0.34-0.924-0.535-1.848-0.584-2.188c-0.145-0.729-0.632-2.527-1.02-3.306c-0.195-0.438-0.536-1.313-0.779-2.091l-0.438-1.41
		c-0.34-0.777-0.438-0.777-0.777-0.777c-0.535,0-1.021,0-1.508,0.049c-0.826,0.049-1.75,0.098-2.09,0.098
		c-0.389,0.049-2.043,0.049-3.598,0.049h-2.966c-0.049,0-0.049,0-0.098,0c-0.194,0-0.341,0.146-0.438,0.533l-0.096,0.486
		l-0.195,0.924c-0.243,0.778-0.973,4.57-1.117,4.959c-0.049,0.391-0.244,1.216-0.439,1.605c-0.145,0.194-0.291,0.924-0.484,1.556
		c-0.146,0.389-0.244,0.827-0.342,1.265c-0.146,0.389-0.098,0.438-0.533,0.438h-0.973c-0.341,0-0.39-0.195-0.243-0.633
		c0-0.049,0-0.146,0.048-0.242c0.049-0.146,0.049-0.341,0.195-0.682l0.437-1.799C24.307,53.667,24.696,52.743,24.841,51.82z
		 M37.919,42.096c0-0.194-0.145-0.583-0.34-1.069c-0.389-0.875-1.215-4.035-1.75-5.494c-0.486-1.458-1.556-5.202-1.702-6.029
		c-0.243-0.874-0.729-2.576-0.973-2.576c-0.194,0-0.437,1.265-0.776,2.383c-0.244,1.07-1.459,5.445-1.848,6.611
		c-0.243,1.168-1.216,4.814-1.605,5.836c-0.049,0.145-0.098,0.242-0.098,0.339c0,0.632,0.924,0.486,1.362,0.486
		c0.485,0,2.188-0.097,2.819-0.097c0.292-0.049,0.924-0.098,1.654-0.098c0.973,0,2.09,0.049,2.625,0.049
		C37.774,42.437,37.919,42.339,37.919,42.096z"/>
	<path fill="#FFFFFF" d="M67.183,41.513c0.195,2.139,0.242,14.148,0.242,15.363c0,1.217-1.311,1.217-1.943,1.217
		c-0.582,0-0.535-0.827-0.582-1.362c-0.049-0.389-0.098-1.265-0.098-2.285c0-0.486,0-0.973,0.049-1.459
		c0.049-1.069,0.242-13.126,0.242-20.905c0-3.355-0.049-5.883-0.146-6.516c-0.047-0.389-0.047-0.729-0.047-1.021
		c0-1.02,0.338-1.117,0.875-1.117c0.631,0,5.201,0.145,7.195,0.145c2.041,0,9.237,0.535,9.237,4.814
		c0,5.737-8.071,6.611-10.501,6.611c-0.391,0-0.633,0-0.682-0.049c0.438,0.438,13.905,18.865,15.657,20.615
		c1.068,1.07,1.311,1.508,1.311,1.799c0,0.146-0.145,0.244-0.242,0.34c-0.291,0.195-1.264,0.293-2.188,0.293
		c-2.041,0-1.896-0.293-2.383-1.313c-0.389-0.778-4.91-6.418-7.245-9.773c-1.166-1.701-3.305-4.375-5.105-6.66l-3.355-4.182
		l-0.193,1.945C67.134,39.13,67.134,40.492,67.183,41.513z M69.761,32.956c1.361-0.049,3.063-0.146,4.375-0.389
		c2.578-0.438,4.522-1.07,4.522-3.209c0-2.091-4.036-3.112-5.979-3.112c-1.217-0.048-2.434-0.048-3.406-0.048H67.62l-0.291,6.807
		C68.155,33.005,68.935,33.005,69.761,32.956z"/>
	<path fill="#FFFFFF" d="M93.387,42.29c0,1.119,0.195,1.605,0.195,2.724l0.049,5.785c0,0.827-0.049,1.702-0.049,2.431
		c-0.049,0.438-0.049,0.826-0.049,1.216c0.631,0.049,1.264,0.049,1.846,0.049c1.021,0.048,2.238,0.048,3.162,0.048
		c1.797,0,3.402,0.098,5.152,0.098c1.752,0,3.404-0.146,4.717-0.146s2.576,0.097,3.111,0.097s0.535,0.244,0.535,0.778
		c0,0.438-0.098,0.973-0.098,1.507c0,0.438-0.291,0.584-1.021,0.584c-0.242,0-0.533,0-0.875-0.049
		c-0.875-0.097-3.063-0.146-5.299-0.146c-1.215,0-2.432,0-3.502,0.049c-0.826,0.048-1.748,0.048-2.721,0.048
		c-2.578,0-5.35-0.097-6.369-0.097c-0.973,0-1.119-0.292-1.119-0.729c0-0.243,0.049-0.486,0.049-0.777
		c0.049-0.195,0.049-0.341,0.049-0.438c0-0.34-0.098-0.632-0.098-2.771c0-2.967-0.242-6.758-0.242-10.016s0.389-8.071,0.389-10.064
		c0-1.945,0-5.64-0.146-7.439c-0.145-1.798,2.334-0.973,3.842-0.973c1.506,0,5.541-0.291,8.168-0.291
		c2.527,0,7.439,0.146,8.459,0.146c1.021,0,0.826,0.777,0.826,1.313c0,0.146,0,0.291,0,0.534c0,0.486,0,1.118-0.195,1.118
		c-0.533,0-0.631-0.146-1.555-0.146h-7.779l-6.027-0.049c-0.73,0-1.557,0.098-2.189,0.146l-1.117,0.097l-0.098,1.313
		c-0.049,0.73-0.049,1.557-0.049,2.285c0,1.361,0.195,2.626,0.195,3.744v1.944c0,0.39,0,0.778,0.049,1.216
		c0.438,0.049,0.873,0.049,1.313,0.049h1.945c0.826,0,1.848-0.195,3.354-0.195c1.557,0,3.209,0.195,3.793,0.195
		s1.361-0.146,2.527-0.146c0.875,0,2.383,0.146,3.355,0.146c0.291,0,0.535,0,0.729-0.049c0.098,0,0.195-0.049,0.291-0.049
		c0.535,0,0.633,0.438,0.584,0.633c-0.049,0.242-0.049,1.361-0.098,1.75c-0.049,0.438,0,0.535-0.729,0.535
		c-0.682,0-4.861-0.535-6.709-0.535c-1.799,0-4.133,0-6.078,0.146c-0.973,0.146-2.041,0.098-2.869,0.098
		c-0.486,0-0.924,0-1.359-0.049l-0.146,0.778C93.436,41.173,93.387,41.757,93.387,42.29z"/>
	<path fill="#FFFFFF" d="M126.688,40.492c0,3.354,0.195,10.355,0.195,11.813c0,1.41,0.193,3.891,0.193,4.668
		c0,0.049,0,0.098,0,0.098c0,0.68-0.436,0.777-0.924,0.777c-0.533,0-2.09,0.195-3.256,0.195c-1.168,0-3.404,0.096-4.717,0.096
		s-1.215-0.729-1.361-1.36c-0.098-0.438-0.195-0.924-0.195-2.14c0-0.535,0-1.167,0.049-1.992c0-2.772,0.098-8.558,0.342-10.746
		c0.145-2.333,0.826-10.599,0.826-12.543c0-1.945,0-3.842,0.145-5.738c0.098-1.117,0.73-1.312,1.361-1.312
		c0.486,0,0.973,0.097,1.266,0.097c0.775,0,2.77-0.049,4.133-0.049c1.408,0,1.992,0.244,2.381,0.973
		c0.389,0.777,1.848,4.035,3.014,6.516c1.168,2.43,4.23,9.383,5.398,11.717c0.582,1.215,1.604,3.063,2.43,4.764l1.508,2.967
		l-0.098-2.82l-0.195-4.765c0-0.485,0-0.972,0-1.458c0-2.091,0.049-4.036,0.098-5.396c0-1.605-0.098-5.203-0.098-7.002l0.195-4.667
		c0-0.583,0.342-0.729,0.729-0.729c0.342,0,0.73,0.098,0.973,0.146c0.584,0.146,0.779,0.097,1.703,0.097
		c0.535,0,0.633,0.146,0.633,0.438c0,0.243-0.098,0.583-0.098,0.972c0,0.924-0.146,11.475-0.146,14.003
		c0,0.438-0.049,0.875-0.049,1.41c0,2.819,0.293,6.903,0.293,8.751c0,2.14,0.242,7.585,0.242,8.509c0,0.049,0,0.097,0,0.097
		c0,0.875-0.486,0.924-0.924,0.875c-0.146-0.049-0.34-0.049-0.584-0.049c-0.582,0-1.264,0.098-1.652,0.049
		c-0.535-0.049-0.584-0.049-1.119-0.972c-0.389-0.875-3.063-7.585-3.986-9.53c-1.021-1.943-4.375-9.432-5.396-11.717
		c-0.535-1.117-1.41-2.819-2.188-4.229l-1.41-2.528l0.146,4.619C126.592,35.921,126.688,38.79,126.688,40.492z"/>
	<path fill="#FFFFFF" d="M163.344,23.524c0-1.41,1.459-1.313,2.479-1.313c1.021,0,3.986-0.146,5.35-0.389
		c1.361-0.146,1.361,0.681,1.166,2.188c-0.098,0.729-0.098,5.104-0.098,9.674c0,4.521,0,9.335,0,10.988
		c0,4.133,0.342,14.343,0.342,12.155c0,0.583-0.293,0.778-0.779,0.778c-0.145,0-0.34,0-0.582-0.049
		c-0.195-0.049-0.488-0.049-0.779-0.049c-1.068,0-2.674,0.193-3.744,0.193c-1.311,0-1.75-0.534-2.332-1.798
		c-0.682-1.313-1.945-4.278-3.404-6.759c-0.73-1.215-2.043-3.694-3.209-5.883l-2.139-4.035v1.848c0,1.118-0.049,2.285,0,3.403
		c0,2.188,0.049,10.21,0.291,11.522c0.049,0.243,0.049,0.438,0.049,0.584c0,0.729-0.34,0.729-0.924,0.681
		c-0.779,0-2.723,0.146-3.793,0.292c-1.021,0.145-1.166-0.195-1.117-1.751c0-1.507-0.242-8.313-0.389-14.197
		c0-4.132,0.242-9.528,0.242-13.126c0-1.41-0.049-2.578-0.145-3.258c-0.049-0.438-0.098-0.777-0.098-1.119
		c0-1.36,0.582-1.555,1.264-1.506c0.777,0.048,1.313,0.048,2.869-0.292c0.535-0.098,0.826-0.098,1.068-0.098
		c0.535,0,0.828,0.098,2.236,0.098c2.043,0,3.063,2.673,3.986,4.229c0.439,0.826,0.973,1.653,1.412,2.285l0.729,1.119v-2.675
		C163.295,25.857,163.295,24.253,163.344,23.524z"/>
	<path fill="#FFFFFF" d="M179.043,38.741c0-3.744-0.242-4.084-0.242-7.001s0.098-5.786,0.145-7.147c0-0.924,0.391-1.068,0.924-1.068
		c0.244,0,0.488,0.047,0.73,0.047c0.73,0,1.604,0.146,3.793,0.146c2.09,0,5.396-0.438,7.291-0.438c1.994,0,4.475,0.195,5.398,0.195
		s1.021,0.438,1.021,1.36c0,1.021,0.193,2.188,0.193,3.696c0,0.438,0,0.971-0.145,1.798c-0.049,0.583-0.342,0.729-0.682,0.729
		s-0.779-0.194-1.07-0.243c-0.729-0.146-2.188-0.146-4.229-0.146c-1.217,0-2.48-0.098-3.695-0.098c-0.439,0-0.875,0-1.314,0.049
		c-0.729,0.049-1.652,0.097-2.576,0.097c-1.166,0-2.285-0.048-2.576-0.048c-0.535,0-0.486,0.242-0.486,0.973
		c0,0.777-0.145,2.966-0.145,4.667v2.868c0,0.535,0,1.021,0.047,1.557c0.389,0.049,0.826,0.049,1.313,0.049
		c0.828,0.049,2.043,0.049,3.404,0.049c1.797,0,3.986-0.195,5.154-0.195c1.166,0,1.846,0.146,2.381,0.146s0.633,0.242,0.633,0.582
		c0,0.341-0.098,0.584-0.098,1.508s0.049,1.361,0.049,2.577c0,0.632-0.146,0.778-0.438,0.778c-0.195,0-0.535-0.146-0.877-0.146
		c-0.775,0-1.797-0.098-4.861-0.098c-3.111,0-5.201,0.389-5.736,0.389c-0.34,0-0.535,0-0.633-0.049c-0.145,0-0.242,0-0.291-0.049
		v4.863c0.146,0,0.34,0,0.535-0.049c0.34,0,0.826-0.049,1.361-0.049c1.119,0,3.549-0.049,5.736-0.049
		c1.605,0,4.182,0.098,6.127,0.098c0.875,0,1.604-0.049,2.043-0.049c0.826,0,0.973,0.438,0.973,1.021
		c0,0.291-0.049,0.68-0.049,0.972c0,0.973-0.049,1.993-0.049,3.403c0,1.361-0.779,1.07-2.336,1.07c-1.604,0-6.271-0.098-8.557-0.098
		c-2.334,0-7.049,0.195-7.68,0.195c-0.098,0-0.195,0.047-0.293,0.047c-0.438,0-0.389-0.388-0.389-0.825
		c-0.049-0.535-0.049-1.216-0.049-1.8c0-0.583-0.098-1.069-0.098-2.09v-6.662C178.703,43.36,179.043,42.485,179.043,38.741z"/>
	<path fill="#FFFFFF" d="M226.445,27.997c0.145,0.146,0.193,0.291,0.193,0.438c0,0.194-0.145,0.389-0.291,0.681
		c-0.342,0.437-1.166,1.847-1.701,2.431c-0.438,0.535-0.438,0.826-0.973,0.826c-0.486,0-4.959-5.008-8.51-5.008
		c-1.264,0-3.111,0.098-3.111,3.354c0,3.21,3.453,4.571,5.689,5.494c2.283,1.021,9.48,3.355,9.48,13.03
		c0,6.418-5.252,9.334-13.176,9.334c-7.926,0-10.453-5.056-10.891-5.492c-0.146-0.195-0.195-0.342-0.195-0.486
		c0-0.195,0.146-0.342,0.389-0.633c0.391-0.535,1.314-1.556,1.848-2.091c0.146-0.146,0.244-0.194,0.391-0.194
		c0.34,0,0.631,0.535,1.02,0.924c0.535,0.535,2.723,2.868,6.516,2.868c1.75,0,4.57-0.388,4.57-3.354
		c0-3.014-3.111-5.591-5.299-7.146c-2.189-1.557-8.85-3.793-8.85-10.064s7.1-10.21,10.648-10.21
		C221.535,22.697,226.055,27.607,226.445,27.997z"/>
	<g>
		<path fill="#FFFFFF" d="M245.822,23.904c4.521,0,14.73,2.967,14.73,18.719c0,14.634-13.613,15.218-15.459,15.218
			c-1.896,0-5.398,0.097-6.613,0.097c-0.777,0-0.924-0.777-0.924-1.652c0-0.438,0.049-0.876,0.049-1.264
			c0-1.168-0.145-3.599-0.145-4.62c0-0.972-0.244-3.354-0.244-7.194c0-3.793,0.389-6.224,0.389-10.113
			c0-3.938-0.098-7.244-0.098-8.266c0-0.973,2.092-0.729,3.258-0.729l1.75-0.098C243.537,23.953,244.703,23.904,245.822,23.904z
			 M248.352,45.783c1.215-1.167,2.43-3.014,2.43-5.543c0-2.479-1.168-3.986-2.334-4.91c-0.682-0.535-1.459-0.924-2.285-1.167
			c0.049,0.534,0.098,1.069,0.098,1.653c0,1.701-0.195,3.549-0.195,5.104c0,1.118-0.049,2.675-0.098,4.084
			c-0.049,0.827-0.049,1.702-0.049,2.528C246.842,47.096,247.621,46.512,248.352,45.783z"/>
		<path fill="#FFFFFF" d="M265.656,39.122c0-3.743-0.244-4.084-0.244-7.001s0.098-5.785,0.146-7.146c0-0.924,0.389-1.07,0.924-1.07
			c0.244,0,0.486,0.049,0.729,0.049c0.73,0,1.605,0.146,3.793,0.146c2.09,0,5.396-0.438,7.293-0.438
			c1.992,0,4.473,0.194,5.396,0.194s1.021,0.438,1.021,1.361c0,1.021,0.193,2.188,0.193,3.695c0,0.438,0,0.973-0.145,1.799
			c-0.049,0.584-0.342,0.729-0.682,0.729s-0.779-0.194-1.07-0.243c-0.729-0.146-2.188-0.146-4.229-0.146
			c-1.215,0-2.48-0.098-3.695-0.098c-0.438,0-0.875,0-1.313,0.049c-0.73,0.049-1.654,0.097-2.578,0.097
			c-1.166,0-2.283-0.048-2.576-0.048c-0.535,0-0.486,0.243-0.486,0.972c0,0.778-0.145,2.967-0.145,4.668v2.868
			c0,0.535,0,1.021,0.047,1.556c0.389,0.049,0.828,0.049,1.313,0.049c0.828,0.049,2.043,0.049,3.404,0.049
			c1.799,0,3.986-0.194,5.154-0.194c1.166,0,1.848,0.146,2.381,0.146c0.535,0,0.633,0.243,0.633,0.584
			c0,0.34-0.098,0.583-0.098,1.506c0,0.924,0.049,1.362,0.049,2.578c0,0.632-0.145,0.777-0.438,0.777
			c-0.195,0-0.535-0.146-0.875-0.146c-0.777,0-1.799-0.098-4.861-0.098c-3.111,0-5.203,0.39-5.738,0.39c-0.34,0-0.535,0-0.633-0.049
			c-0.145,0-0.242,0-0.291-0.049v4.861c0.146,0,0.34,0,0.535-0.048c0.342,0,0.826-0.049,1.361-0.049
			c1.119,0,3.551-0.049,5.738-0.049c1.604,0,4.18,0.098,6.125,0.098c0.875,0,1.604-0.049,2.043-0.049
			c0.826,0,0.973,0.438,0.973,1.021c0,0.292-0.049,0.682-0.049,0.973c0,0.973-0.049,1.993-0.049,3.403
			c0,1.361-0.779,1.069-2.334,1.069c-1.605,0-6.273-0.097-8.557-0.097c-2.334,0-7.051,0.194-7.682,0.194
			c-0.098,0-0.195,0.049-0.293,0.049c-0.438,0-0.389-0.389-0.389-0.826c-0.049-0.535-0.049-1.217-0.049-1.8s-0.098-1.069-0.098-2.09
			v-6.661C265.314,43.74,265.656,42.866,265.656,39.122z"/>
		<path fill="#FFFFFF" d="M301.291,26.385c-4.717,0-6.809,2.479-6.809,5.396c0,2.965,2.773,4.765,5.203,6.076
			c2.48,1.168,10.404,2.724,10.404,10.988c0,8.363-7.875,9.529-12.105,9.529c-4.18,0-7.537-2.966-7.924-3.354
			c-0.391-0.342-0.391-0.633-0.244-0.876s0.68-1.458,1.07-1.458c0.049,0,0.098,0,0.098,0c0.291,0,0.242,0.048,0.973,0.777
			c0.777,0.778,3.791,2.236,5.541,2.236s7.244-0.194,7.244-5.737c0-2.771-3.84-4.229-7.584-6.417
			c-3.695-2.091-7.244-4.717-7.244-10.064c0-6.418,6.369-9.821,11.23-9.821c4.766,0,7.926,3.063,8.412,3.403
			c0.34,0.243,0.484,0.438,0.484,0.681c0,0.146-0.047,0.243-0.193,0.39c-0.242,0.242-0.875,1.458-1.264,1.458
			c-0.195,0-0.391-0.097-0.633-0.243l-0.34-0.291C307.076,28.669,304.014,26.385,301.291,26.385z"/>
		<path fill="#FFFFFF" d="M350.297,51.617c0,6.904-9.482,6.516-11.428,6.516c-1.895,0-6.563,0.146-7.68,0.146
			c-1.168,0-1.363-0.876-1.363-1.848l0.049-10.794c0-0.924,0-1.604,0-2.334c0-0.923,0-1.847,0.146-3.354
			c0.146-2.723,0.146-10.162,0.293-11.523c0.049-0.389,0.049-0.875,0.049-1.361c0-1.07-0.098-2.188-0.146-2.431
			c-0.049-0.097-0.049-0.194-0.049-0.243c0-0.194,0.146-0.34,0.533-0.438c0.439-0.146,3.793-0.681,6.371-0.681
			c5.25,0,10.016,1.361,10.016,8.849c0,3.841-1.412,5.98-2.82,7.293c-0.826,0.729-1.75,1.264-2.771,1.604
			C342.564,41.407,350.297,44.081,350.297,51.617z M347.232,51.568c0-5.299-2.82-7.682-5.592-8.848
			c-1.652-0.633-3.5-0.924-5.59-0.876c-0.049,0.146-0.049,0.243-0.049,0.39c-0.049,0.242-0.049,0.583-0.049,1.117
			c0,1.07,0.195,4.862,0.195,5.738c0,0.923-0.098,1.068-0.098,2.235s0.195,4.229,0.195,5.105c0,0.972,0.533,0.778,1.457,0.778
			C344.268,57.209,347.232,54.875,347.232,51.568z M336.1,39.949c0,0.34,0,0.438,0.34,0.438c0.389,0,8.85-0.438,8.85-7.877
			c0-7.486-4.475-7.827-8.898-7.827l-0.096,3.111c-0.049,1.75-0.098,3.841-0.098,5.202v5.543
			C336.197,39.316,336.1,39.608,336.1,39.949z"/>
		<path fill="#FFFFFF" d="M362.836,23.029c0.195-0.486,0.439-0.584,0.682-0.34c0.34,0.242,0.438,0.777,0.633,1.361
			c0.146,0.68,1.895,4.375,2.576,5.834c0.729,1.508,1.41,3.257,2.09,5.202c0.633,1.896,3.111,6.903,4.133,9.237
			c1.021,2.236,3.5,6.953,4.182,8.266c0.631,1.264,1.604,3.598,2.285,4.375c0.145,0.292,0.242,0.486,0.242,0.633
			c0,0.34-0.436,0.389-0.875,0.389h-3.5c-0.389,0-0.633-0.875-0.973-1.604c-0.389-0.729-1.652-4.229-1.896-5.008
			c-0.242-0.729-0.875-1.993-1.215-2.771c-0.244-0.827-0.486-0.973-0.875-0.973c-0.34,0-1.117,0.098-1.945,0.146
			c-0.777,0.146-3.84,0.049-5.201,0.194c-0.438,0.049-1.021,0.049-1.557,0.049c-1.166,0-2.332-0.049-2.576-0.049
			c-0.438,0-0.486,0.535-0.633,1.07c-0.096,0.486-0.875,3.549-1.02,4.473l-0.537,2.09l-0.387,1.41
			c-0.195,0.729-0.293,0.924-0.633,0.924h-2.869c-0.193,0-0.242-0.049-0.242-0.194s0.096-0.389,0.193-0.681
			c0.195-0.438,0.293-0.535,0.682-1.848s1.75-5.834,2.139-7.876c0.389-2.188,1.264-4.765,1.799-6.272
			c0.389-1.604,0.633-2.382,1.264-4.667c0.633-2.285,1.313-4.618,1.848-6.369l1.215-3.89
			C362.254,24.634,362.643,23.564,362.836,23.029z M367.795,40.678c0-0.097-0.049-0.194-0.145-0.389
			c-0.34-0.584-1.848-4.084-2.334-5.494c-0.633-1.508-1.02-2.771-1.166-3.014c-0.342-0.729-0.391-1.021-0.633-1.021
			c-0.193,0-0.34,0.924-0.584,1.848c-0.242,0.777-1.021,3.354-1.264,4.278c-0.242,1.021-0.826,2.479-1.07,3.209
			c-0.096,0.34-0.145,0.583-0.145,0.778c0,0.193,0.098,0.291,0.436,0.291c0.586,0,4.961-0.098,5.787-0.243
			C367.359,40.824,367.795,40.921,367.795,40.678z"/>
		<path fill="#FFFFFF" d="M385.637,41.894c0.195,2.139,0.242,14.147,0.242,15.363s-1.311,1.216-1.943,1.216
			c-0.584,0-0.535-0.826-0.584-1.361c-0.049-0.389-0.098-1.265-0.098-2.285c0-0.486,0-0.973,0.049-1.459
			c0.049-1.069,0.244-13.127,0.244-20.906c0-3.354-0.049-5.883-0.146-6.514c-0.049-0.39-0.049-0.73-0.049-1.021
			c0-1.021,0.34-1.119,0.875-1.119c0.633,0,5.203,0.146,7.197,0.146c2.041,0,9.236,0.535,9.236,4.813
			c0,5.737-8.07,6.612-10.502,6.612c-0.389,0-0.631,0-0.68-0.049c0.436,0.438,13.904,18.864,15.654,20.614
			c1.07,1.069,1.313,1.507,1.313,1.799c0,0.146-0.145,0.243-0.242,0.341c-0.293,0.194-1.266,0.291-2.189,0.291
			c-2.041,0-1.895-0.291-2.381-1.313c-0.389-0.777-4.91-6.418-7.244-9.772c-1.168-1.702-3.307-4.375-5.105-6.661l-3.355-4.181
			l-0.193,1.944C385.588,39.511,385.588,40.873,385.637,41.894z M388.213,33.336c1.363-0.049,3.064-0.146,4.377-0.389
			c2.576-0.438,4.521-1.068,4.521-3.209c0-2.09-4.037-3.111-5.98-3.111c-1.217-0.049-2.432-0.049-3.404-0.049h-1.652l-0.291,6.807
			C386.609,33.385,387.387,33.385,388.213,33.336z"/>
		<path fill="#FFFFFF" d="M432.648,28.377c0.145,0.146,0.193,0.292,0.193,0.438c0,0.195-0.145,0.39-0.291,0.682
			c-0.34,0.438-1.166,1.848-1.701,2.43c-0.438,0.535-0.438,0.827-0.973,0.827c-0.486,0-4.959-5.008-8.508-5.008
			c-1.266,0-3.111,0.097-3.111,3.354c0,3.209,3.451,4.57,5.688,5.494c2.285,1.021,9.48,3.355,9.48,13.029
			c0,6.418-5.25,9.336-13.176,9.336c-7.924,0-10.453-5.057-10.891-5.494c-0.146-0.194-0.195-0.34-0.195-0.486
			c0-0.194,0.146-0.34,0.391-0.632c0.389-0.535,1.313-1.556,1.848-2.091c0.146-0.146,0.242-0.194,0.389-0.194
			c0.34,0,0.633,0.534,1.02,0.924c0.537,0.534,2.725,2.868,6.518,2.868c1.748,0,4.568-0.389,4.568-3.354
			c0-3.015-3.111-5.591-5.299-7.147c-2.188-1.555-8.85-3.792-8.85-10.064c0-6.271,7.1-10.209,10.648-10.209
			C427.738,23.078,432.26,27.988,432.648,28.377z"/>
	</g>
</g>
</svg>
