<?xml version="1.0" encoding="utf-8"?>
<!-- Generator: Adobe Illustrator 22.1.0, SVG Export Plug-In . SVG Version: 6.00 Build 0)  -->
<svg version="1.1" id="Calque_1" xmlns="http://www.w3.org/2000/svg" xmlns:xlink="http://www.w3.org/1999/xlink" x="0px" y="0px"
	 viewBox="0 0 433.4 59" style="enable-background:new 0 0 433.4 59;" xml:space="preserve">
<style type="text/css">
	.st0{fill:#FFFFFF;}
</style>
<g>
	<g>
		<path class="st0" d="M79.1,17.5l3.8-12.2l-3.5,2.3c0.1,0.2,0.2,0.3,0.2,0.5c0.1,0.7-0.4,1.3-1.1,1.4c-0.7,0.1-1.3-0.4-1.4-1.1
			c-0.1-0.7,0.4-1.3,1.1-1.4L77.6,2l-2.8,4c0.2,0.2,0.4,0.4,0.5,0.6c0.4,0.8,0,1.7-0.8,2.1s-1.7,0-2.1-0.8c-0.4-0.8,0-1.7,0.8-2.1
			L70.3,0l-1.8,6.2c0.3,0.1,0.5,0.2,0.7,0.4c0.6,0.6,0.6,1.6,0,2.2s-1.6,0.6-2.2,0c-0.6-0.6-0.6-1.6,0-2.2l-3.4-3.5l0.2,5.2
			c0.2,0,0.4,0,0.6,0.1c0.6,0.3,0.9,1,0.6,1.7c-0.3,0.6-1,0.9-1.7,0.6c-0.6-0.3-0.9-1-0.6-1.7l-3.8-1.8l5.7,11.4L79.1,17.5z
			 M76.5,12.2l0.6-0.9l0.7,0.8l0.7,0.8l-0.6,0.9l-0.6,0.9l-0.7-0.8l-0.7-0.8L76.5,12.2z M70.4,11.9l0.8-1.3l1,1.1l1,1.1l-0.8,1.3
			l-0.8,1.3l-1-1.1l-1-1.1L70.4,11.9z M64.9,13.1l0.6-0.9l0.7,0.8l0.7,0.8l-0.6,0.9l-0.6,0.9L65,14.8L64.3,14L64.9,13.1z"/>
	</g>
	<path class="st0" d="M21.9,55.1C21.9,55.1,22,55.1,21.9,55.1c0.6,0,0.4,0.3,0.4,0.6c0,0.3,0.1,1.1,0.1,1.7c0,0.6-0.6,0.5-1.4,0.5
		c-0.8,0-5.7-0.4-7.4-0.4c-1.7,0-11.5,0.4-12.3,0.4s-1.1-0.5-1.1-1c0-0.4,0-1.8,0-3.8c0-1.8,0.2-14.7,0.2-16.3
		C0.4,35.3,0,25.6,0,24.2c0-0.6,0.2-0.8,0.6-0.8c0.5,0,1.1,0.3,1.8,0.3c0.7,0.1,1.9,0.2,3.3,0.2c0.9,0,1.7,0,2.5-0.1
		c1.9-0.2,1.2,1.1,1.2,2.2c0,0.8-0.3,6.5-0.3,8.6s0.1,10,0.1,10.9C9.1,46.4,9,50,9,50.8c0,0.2,0,0.6,0,1c0,0.4,0,0.9,0,1.4l0.1,1.7
		l7,0.2L21.9,55.1z"/>
	<path class="st0" d="M24.8,51.8c0.1-0.8,0.5-2.2,0.9-3.5c0.4-1.4,1.3-4.2,1.6-5.6c0.3-1.5,1-3.5,1.3-4.6c0.2-1.2,0.9-3.5,1.3-5
		c0.4-1.4,0.8-2.7,1.1-3.4c0.2-0.7,1.3-3.5,1.5-4.8c0.4-1.4,0.8-2.3,1.7-2.3c0.4,0,0.8,1.1,1.3,2.4c0.5,1.3,1.5,5.2,1.8,6
		c0.1,0.9,2.3,6.6,2.5,7.4c0.4,1,2.1,5.7,2.6,7c0.4,1.2,1.6,4.7,2,6.2c0.4,1.6,1.7,4.7,1.9,5.3c0.1,0.2,0.1,0.4,0.1,0.5
		c0,0.1-0.1,0.2-0.5,0.2h-2.7c-0.2,0-0.4,0-0.5-0.4c-0.2-0.6-0.4-1.2-0.5-1.8c-0.3-0.9-0.5-1.8-0.6-2.2c-0.1-0.7-0.6-2.5-1-3.3
		c-0.2-0.4-0.5-1.3-0.8-2.1l-0.4-1.4c-0.3-0.8-0.4-0.8-0.8-0.8c-0.5,0-1,0-1.5,0c-0.8,0-1.8,0.1-2.1,0.1c-0.4,0-2,0-3.6,0h-3
		c0,0,0,0-0.1,0c-0.2,0-0.3,0.1-0.4,0.5l-0.1,0.5l-0.2,0.9c-0.2,0.8-1,4.6-1.1,5c0,0.4-0.2,1.2-0.4,1.6c-0.1,0.2-0.3,0.9-0.5,1.6
		c-0.1,0.4-0.2,0.8-0.3,1.3c-0.1,0.4-0.1,0.4-0.5,0.4h-1c-0.3,0-0.4-0.2-0.2-0.6c0,0,0-0.1,0-0.2c0-0.1,0-0.3,0.2-0.7l0.4-1.8
		C24.3,53.7,24.7,52.7,24.8,51.8z M37.9,42.1c0-0.2-0.1-0.6-0.3-1.1c-0.4-0.9-1.2-4-1.8-5.5c-0.5-1.5-1.6-5.2-1.7-6
		c-0.2-0.9-0.7-2.6-1-2.6c-0.2,0-0.4,1.3-0.8,2.4c-0.2,1.1-1.5,5.4-1.8,6.6c-0.2,1.2-1.2,4.8-1.6,5.8c0,0.1-0.1,0.2-0.1,0.3
		c0,0.6,0.9,0.5,1.4,0.5c0.5,0,2.2-0.1,2.8-0.1c0.3,0,0.9-0.1,1.7-0.1c1,0,2.1,0,2.6,0C37.8,42.4,37.9,42.3,37.9,42.1z"/>
	<path class="st0" d="M67.2,41.5c0.2,2.1,0.2,14.1,0.2,15.4c0,1.2-1.3,1.2-1.9,1.2c-0.6,0-0.5-0.8-0.6-1.4c0-0.4-0.1-1.3-0.1-2.3
		c0-0.5,0-1,0-1.5c0-1.1,0.2-13.1,0.2-20.9c0-3.4,0-5.9-0.1-6.5c0-0.4,0-0.7,0-1c0-1,0.3-1.1,0.9-1.1c0.6,0,5.2,0.1,7.2,0.1
		c2,0,9.2,0.5,9.2,4.8c0,5.7-8.1,6.6-10.5,6.6c-0.4,0-0.6,0-0.7,0c0.4,0.4,13.9,18.9,15.7,20.6c1.1,1.1,1.3,1.5,1.3,1.8
		c0,0.1-0.1,0.2-0.2,0.3c-0.3,0.2-1.3,0.3-2.2,0.3c-2,0-1.9-0.3-2.4-1.3c-0.4-0.8-4.9-6.4-7.2-9.8c-1.2-1.7-3.3-4.4-5.1-6.7
		l-3.4-4.2L67.3,38C67.1,39.1,67.1,40.5,67.2,41.5z M69.8,33c1.4,0,3.1-0.1,4.4-0.4c2.6-0.4,4.5-1.1,4.5-3.2c0-2.1-4-3.1-6-3.1
		c-1.2,0-2.4,0-3.4,0h-1.7L67.3,33C68.2,33,68.9,33,69.8,33z"/>
	<path class="st0" d="M93.4,42.3c0,1.1,0.2,1.6,0.2,2.7l0,5.8c0,0.8,0,1.7,0,2.4c0,0.4,0,0.8,0,1.2c0.6,0,1.3,0,1.8,0
		c1,0,2.2,0,3.2,0c1.8,0,3.4,0.1,5.2,0.1c1.8,0,3.4-0.1,4.7-0.1s2.6,0.1,3.1,0.1s0.5,0.2,0.5,0.8c0,0.4-0.1,1-0.1,1.5
		c0,0.4-0.3,0.6-1,0.6c-0.2,0-0.5,0-0.9,0c-0.9-0.1-3.1-0.1-5.3-0.1c-1.2,0-2.4,0-3.5,0c-0.8,0-1.7,0-2.7,0c-2.6,0-5.3-0.1-6.4-0.1
		c-1,0-1.1-0.3-1.1-0.7c0-0.2,0-0.5,0-0.8c0-0.2,0-0.3,0-0.4c0-0.3-0.1-0.6-0.1-2.8c0-3-0.2-6.8-0.2-10s0.4-8.1,0.4-10.1
		c0-1.9,0-5.6-0.1-7.4c-0.1-1.8,2.3-1,3.8-1c1.5,0,5.5-0.3,8.2-0.3c2.5,0,7.4,0.1,8.5,0.1c1,0,0.8,0.8,0.8,1.3c0,0.1,0,0.3,0,0.5
		c0,0.5,0,1.1-0.2,1.1c-0.5,0-0.6-0.1-1.6-0.1h-7.8l-6,0c-0.7,0-1.6,0.1-2.2,0.1l-1.1,0.1l-0.1,1.3c0,0.7,0,1.6,0,2.3
		c0,1.4,0.2,2.6,0.2,3.7v1.9c0,0.4,0,0.8,0,1.2c0.4,0,0.9,0,1.3,0h1.9c0.8,0,1.8-0.2,3.4-0.2c1.6,0,3.2,0.2,3.8,0.2s1.4-0.1,2.5-0.1
		c0.9,0,2.4,0.1,3.4,0.1c0.3,0,0.5,0,0.7,0c0.1,0,0.2,0,0.3,0c0.5,0,0.6,0.4,0.6,0.6c0,0.2,0,1.4-0.1,1.8c0,0.4,0,0.5-0.7,0.5
		c-0.7,0-4.9-0.5-6.7-0.5c-1.8,0-4.1,0-6.1,0.1c-1,0.1-2,0.1-2.9,0.1c-0.5,0-0.9,0-1.4,0l-0.1,0.8C93.4,41.2,93.4,41.8,93.4,42.3z"
		/>
	<path class="st0" d="M126.7,40.5c0,3.4,0.2,10.4,0.2,11.8c0,1.4,0.2,3.9,0.2,4.7c0,0,0,0.1,0,0.1c0,0.7-0.4,0.8-0.9,0.8
		c-0.5,0-2.1,0.2-3.3,0.2c-1.2,0-3.4,0.1-4.7,0.1s-1.2-0.7-1.4-1.4c-0.1-0.4-0.2-0.9-0.2-2.1c0-0.5,0-1.2,0-2
		c0-2.8,0.1-8.6,0.3-10.7c0.1-2.3,0.8-10.6,0.8-12.5c0-1.9,0-3.8,0.1-5.7c0.1-1.1,0.7-1.3,1.4-1.3c0.5,0,1,0.1,1.3,0.1
		c0.8,0,2.8,0,4.1,0c1.4,0,2,0.2,2.4,1c0.4,0.8,1.8,4,3,6.5c1.2,2.4,4.2,9.4,5.4,11.7c0.6,1.2,1.6,3.1,2.4,4.8l1.5,3l-0.1-2.8
		l-0.2-4.8c0-0.5,0-1,0-1.5c0-2.1,0-4,0.1-5.4c0-1.6-0.1-5.2-0.1-7l0.2-4.7c0-0.6,0.3-0.7,0.7-0.7c0.3,0,0.7,0.1,1,0.1
		c0.6,0.1,0.8,0.1,1.7,0.1c0.5,0,0.6,0.1,0.6,0.4c0,0.2-0.1,0.6-0.1,1c0,0.9-0.1,11.5-0.1,14c0,0.4,0,0.9,0,1.4
		c0,2.8,0.3,6.9,0.3,8.8c0,2.1,0.2,7.6,0.2,8.5c0,0,0,0.1,0,0.1c0,0.9-0.5,0.9-0.9,0.9c-0.1,0-0.3,0-0.6,0c-0.6,0-1.3,0.1-1.7,0
		c-0.5,0-0.6,0-1.1-1c-0.4-0.9-3.1-7.6-4-9.5c-1-1.9-4.4-9.4-5.4-11.7c-0.5-1.1-1.4-2.8-2.2-4.2l-1.4-2.5l0.1,4.6
		C126.6,35.9,126.7,38.8,126.7,40.5z"/>
	<path class="st0" d="M163.3,23.5c0-1.4,1.5-1.3,2.5-1.3c1,0,4-0.1,5.4-0.4c1.4-0.1,1.4,0.7,1.2,2.2c-0.1,0.7-0.1,5.1-0.1,9.7
		c0,4.5,0,9.3,0,11c0,4.1,0.3,14.3,0.3,12.2c0,0.6-0.3,0.8-0.8,0.8c-0.1,0-0.3,0-0.6,0c-0.2,0-0.5,0-0.8,0c-1.1,0-2.7,0.2-3.7,0.2
		c-1.3,0-1.8-0.5-2.3-1.8c-0.7-1.3-1.9-4.3-3.4-6.8c-0.7-1.2-2-3.7-3.2-5.9l-2.1-4v1.8c0,1.1,0,2.3,0,3.4c0,2.2,0,10.2,0.3,11.5
		c0,0.2,0,0.4,0,0.6c0,0.7-0.3,0.7-0.9,0.7c-0.8,0-2.7,0.1-3.8,0.3c-1,0.1-1.2-0.2-1.1-1.8c0-1.5-0.2-8.3-0.4-14.2
		c0-4.1,0.2-9.5,0.2-13.1c0-1.4,0-2.6-0.1-3.3c0-0.4-0.1-0.8-0.1-1.1c0-1.4,0.6-1.6,1.3-1.5c0.8,0,1.3,0,2.9-0.3
		c0.5-0.1,0.8-0.1,1.1-0.1c0.5,0,0.8,0.1,2.2,0.1c2,0,3.1,2.7,4,4.2c0.4,0.8,1,1.7,1.4,2.3l0.7,1.1v-2.7
		C163.3,25.9,163.3,24.3,163.3,23.5z"/>
	<path class="st0" d="M179,38.7c0-3.7-0.2-4.1-0.2-7s0.1-5.8,0.1-7.1c0-0.9,0.4-1.1,0.9-1.1c0.2,0,0.5,0,0.7,0
		c0.7,0,1.6,0.1,3.8,0.1c2.1,0,5.4-0.4,7.3-0.4c2,0,4.5,0.2,5.4,0.2s1,0.4,1,1.4c0,1,0.2,2.2,0.2,3.7c0,0.4,0,1-0.1,1.8
		c0,0.6-0.3,0.7-0.7,0.7s-0.8-0.2-1.1-0.2c-0.7-0.1-2.2-0.1-4.2-0.1c-1.2,0-2.5-0.1-3.7-0.1c-0.4,0-0.9,0-1.3,0
		c-0.7,0-1.7,0.1-2.6,0.1c-1.2,0-2.3,0-2.6,0c-0.5,0-0.5,0.2-0.5,1c0,0.8-0.1,3-0.1,4.7v2.9c0,0.5,0,1,0,1.6c0.4,0,0.8,0,1.3,0
		c0.8,0,2,0,3.4,0c1.8,0,4-0.2,5.2-0.2c1.2,0,1.8,0.1,2.4,0.1s0.6,0.2,0.6,0.6c0,0.3-0.1,0.6-0.1,1.5s0,1.4,0,2.6
		c0,0.6-0.1,0.8-0.4,0.8c-0.2,0-0.5-0.1-0.9-0.1c-0.8,0-1.8-0.1-4.9-0.1c-3.1,0-5.2,0.4-5.7,0.4c-0.3,0-0.5,0-0.6,0
		c-0.1,0-0.2,0-0.3,0v4.9c0.1,0,0.3,0,0.5,0c0.3,0,0.8,0,1.4,0c1.1,0,3.5,0,5.7,0c1.6,0,4.2,0.1,6.1,0.1c0.9,0,1.6,0,2,0
		c0.8,0,1,0.4,1,1c0,0.3,0,0.7,0,1c0,1,0,2,0,3.4c0,1.4-0.8,1.1-2.3,1.1c-1.6,0-6.3-0.1-8.6-0.1c-2.3,0-7,0.2-7.7,0.2
		c-0.1,0-0.2,0-0.3,0c-0.4,0-0.4-0.4-0.4-0.8c0-0.5,0-1.2,0-1.8c0-0.6-0.1-1.1-0.1-2.1v-6.7C178.7,43.4,179,42.5,179,38.7z"/>
	<path class="st0" d="M226.4,28c0.1,0.1,0.2,0.3,0.2,0.4c0,0.2-0.1,0.4-0.3,0.7c-0.3,0.4-1.2,1.8-1.7,2.4c-0.4,0.5-0.4,0.8-1,0.8
		c-0.5,0-5-5-8.5-5c-1.3,0-3.1,0.1-3.1,3.4c0,3.2,3.5,4.6,5.7,5.5c2.3,1,9.5,3.4,9.5,13c0,6.4-5.3,9.3-13.2,9.3
		c-7.9,0-10.5-5.1-10.9-5.5c-0.1-0.2-0.2-0.3-0.2-0.5c0-0.2,0.1-0.3,0.4-0.6c0.4-0.5,1.3-1.6,1.8-2.1c0.1-0.1,0.2-0.2,0.4-0.2
		c0.3,0,0.6,0.5,1,0.9c0.5,0.5,2.7,2.9,6.5,2.9c1.8,0,4.6-0.4,4.6-3.4c0-3-3.1-5.6-5.3-7.1c-2.2-1.6-8.9-3.8-8.9-10.1
		s7.1-10.2,10.6-10.2C221.5,22.7,226.1,27.6,226.4,28z"/>
	<g>
		<path class="st0" d="M245.8,23.9c4.5,0,14.7,3,14.7,18.7c0,14.6-13.6,15.2-15.5,15.2c-1.9,0-5.4,0.1-6.6,0.1
			c-0.8,0-0.9-0.8-0.9-1.7c0-0.4,0-0.9,0-1.3c0-1.2-0.1-3.6-0.1-4.6c0-1-0.2-3.4-0.2-7.2c0-3.8,0.4-6.2,0.4-10.1
			c0-3.9-0.1-7.2-0.1-8.3c0-1,2.1-0.7,3.3-0.7l1.8-0.1C243.5,24,244.7,23.9,245.8,23.9z M248.4,45.8c1.2-1.2,2.4-3,2.4-5.5
			c0-2.5-1.2-4-2.3-4.9c-0.7-0.5-1.5-0.9-2.3-1.2c0,0.5,0.1,1.1,0.1,1.7c0,1.7-0.2,3.5-0.2,5.1c0,1.1,0,2.7-0.1,4.1
			c0,0.8,0,1.7,0,2.5C246.8,47.1,247.6,46.5,248.4,45.8z"/>
		<path class="st0" d="M265.7,39.1c0-3.7-0.2-4.1-0.2-7s0.1-5.8,0.1-7.1c0-0.9,0.4-1.1,0.9-1.1c0.2,0,0.5,0,0.7,0
			c0.7,0,1.6,0.1,3.8,0.1c2.1,0,5.4-0.4,7.3-0.4c2,0,4.5,0.2,5.4,0.2s1,0.4,1,1.4c0,1,0.2,2.2,0.2,3.7c0,0.4,0,1-0.1,1.8
			c0,0.6-0.3,0.7-0.7,0.7s-0.8-0.2-1.1-0.2c-0.7-0.1-2.2-0.1-4.2-0.1c-1.2,0-2.5-0.1-3.7-0.1c-0.4,0-0.9,0-1.3,0
			c-0.7,0-1.7,0.1-2.6,0.1c-1.2,0-2.3,0-2.6,0c-0.5,0-0.5,0.2-0.5,1c0,0.8-0.1,3-0.1,4.7v2.9c0,0.5,0,1,0,1.6c0.4,0,0.8,0,1.3,0
			c0.8,0,2,0,3.4,0c1.8,0,4-0.2,5.2-0.2c1.2,0,1.8,0.1,2.4,0.1c0.5,0,0.6,0.2,0.6,0.6c0,0.3-0.1,0.6-0.1,1.5c0,0.9,0,1.4,0,2.6
			c0,0.6-0.1,0.8-0.4,0.8c-0.2,0-0.5-0.1-0.9-0.1c-0.8,0-1.8-0.1-4.9-0.1c-3.1,0-5.2,0.4-5.7,0.4c-0.3,0-0.5,0-0.6,0
			c-0.1,0-0.2,0-0.3,0v4.9c0.1,0,0.3,0,0.5,0c0.3,0,0.8,0,1.4,0c1.1,0,3.6,0,5.7,0c1.6,0,4.2,0.1,6.1,0.1c0.9,0,1.6,0,2,0
			c0.8,0,1,0.4,1,1c0,0.3,0,0.7,0,1c0,1,0,2,0,3.4c0,1.4-0.8,1.1-2.3,1.1c-1.6,0-6.3-0.1-8.6-0.1c-2.3,0-7.1,0.2-7.7,0.2
			c-0.1,0-0.2,0-0.3,0c-0.4,0-0.4-0.4-0.4-0.8c0-0.5,0-1.2,0-1.8s-0.1-1.1-0.1-2.1v-6.7C265.3,43.7,265.7,42.9,265.7,39.1z"/>
		<path class="st0" d="M301.3,26.4c-4.7,0-6.8,2.5-6.8,5.4c0,3,2.8,4.8,5.2,6.1c2.5,1.2,10.4,2.7,10.4,11c0,8.4-7.9,9.5-12.1,9.5
			c-4.2,0-7.5-3-7.9-3.4c-0.4-0.3-0.4-0.6-0.2-0.9s0.7-1.5,1.1-1.5c0,0,0.1,0,0.1,0c0.3,0,0.2,0,1,0.8c0.8,0.8,3.8,2.2,5.5,2.2
			s7.2-0.2,7.2-5.7c0-2.8-3.8-4.2-7.6-6.4c-3.7-2.1-7.2-4.7-7.2-10.1c0-6.4,6.4-9.8,11.2-9.8c4.8,0,7.9,3.1,8.4,3.4
			c0.3,0.2,0.5,0.4,0.5,0.7c0,0.1,0,0.2-0.2,0.4c-0.2,0.2-0.9,1.5-1.3,1.5c-0.2,0-0.4-0.1-0.6-0.2l-0.3-0.3
			C307.1,28.7,304,26.4,301.3,26.4z"/>
		<path class="st0" d="M350.3,51.6c0,6.9-9.5,6.5-11.4,6.5c-1.9,0-6.6,0.1-7.7,0.1c-1.2,0-1.4-0.9-1.4-1.8l0-10.8c0-0.9,0-1.6,0-2.3
			c0-0.9,0-1.8,0.1-3.4c0.1-2.7,0.1-10.2,0.3-11.5c0-0.4,0-0.9,0-1.4c0-1.1-0.1-2.2-0.1-2.4c0-0.1,0-0.2,0-0.2
			c0-0.2,0.1-0.3,0.5-0.4c0.4-0.1,3.8-0.7,6.4-0.7c5.3,0,10,1.4,10,8.8c0,3.8-1.4,6-2.8,7.3c-0.8,0.7-1.8,1.3-2.8,1.6
			C342.6,41.4,350.3,44.1,350.3,51.6z M347.2,51.6c0-5.3-2.8-7.7-5.6-8.8c-1.7-0.6-3.5-0.9-5.6-0.9c0,0.1,0,0.2,0,0.4
			c0,0.2,0,0.6,0,1.1c0,1.1,0.2,4.9,0.2,5.7c0,0.9-0.1,1.1-0.1,2.2s0.2,4.2,0.2,5.1c0,1,0.5,0.8,1.5,0.8
			C344.3,57.2,347.2,54.9,347.2,51.6z M336.1,39.9c0,0.3,0,0.4,0.3,0.4c0.4,0,8.9-0.4,8.9-7.9c0-7.5-4.5-7.8-8.9-7.8l-0.1,3.1
			c0,1.8-0.1,3.8-0.1,5.2v5.5C336.2,39.3,336.1,39.6,336.1,39.9z"/>
		<path class="st0" d="M362.8,23c0.2-0.5,0.4-0.6,0.7-0.3c0.3,0.2,0.4,0.8,0.6,1.4c0.1,0.7,1.9,4.4,2.6,5.8c0.7,1.5,1.4,3.3,2.1,5.2
			c0.6,1.9,3.1,6.9,4.1,9.2c1,2.2,3.5,7,4.2,8.3c0.6,1.3,1.6,3.6,2.3,4.4c0.1,0.3,0.2,0.5,0.2,0.6c0,0.3-0.4,0.4-0.9,0.4h-3.5
			c-0.4,0-0.6-0.9-1-1.6c-0.4-0.7-1.7-4.2-1.9-5c-0.2-0.7-0.9-2-1.2-2.8c-0.2-0.8-0.5-1-0.9-1c-0.3,0-1.1,0.1-1.9,0.1
			c-0.8,0.1-3.8,0-5.2,0.2c-0.4,0-1,0-1.6,0c-1.2,0-2.3,0-2.6,0c-0.4,0-0.5,0.5-0.6,1.1c-0.1,0.5-0.9,3.5-1,4.5l-0.5,2.1l-0.4,1.4
			c-0.2,0.7-0.3,0.9-0.6,0.9H353c-0.2,0-0.2,0-0.2-0.2s0.1-0.4,0.2-0.7c0.2-0.4,0.3-0.5,0.7-1.8s1.8-5.8,2.1-7.9
			c0.4-2.2,1.3-4.8,1.8-6.3c0.4-1.6,0.6-2.4,1.3-4.7c0.6-2.3,1.3-4.6,1.8-6.4l1.2-3.9C362.3,24.6,362.6,23.6,362.8,23z M367.8,40.7
			c0-0.1,0-0.2-0.1-0.4c-0.3-0.6-1.8-4.1-2.3-5.5c-0.6-1.5-1-2.8-1.2-3c-0.3-0.7-0.4-1-0.6-1c-0.2,0-0.3,0.9-0.6,1.8
			c-0.2,0.8-1,3.4-1.3,4.3c-0.2,1-0.8,2.5-1.1,3.2c-0.1,0.3-0.1,0.6-0.1,0.8c0,0.2,0.1,0.3,0.4,0.3c0.6,0,5-0.1,5.8-0.2
			C367.4,40.8,367.8,40.9,367.8,40.7z"/>
		<path class="st0" d="M385.6,41.9c0.2,2.1,0.2,14.1,0.2,15.4s-1.3,1.2-1.9,1.2c-0.6,0-0.5-0.8-0.6-1.4c0-0.4-0.1-1.3-0.1-2.3
			c0-0.5,0-1,0-1.5c0-1.1,0.2-13.1,0.2-20.9c0-3.4,0-5.9-0.1-6.5c0-0.4,0-0.7,0-1c0-1,0.3-1.1,0.9-1.1c0.6,0,5.2,0.1,7.2,0.1
			c2,0,9.2,0.5,9.2,4.8c0,5.7-8.1,6.6-10.5,6.6c-0.4,0-0.6,0-0.7,0c0.4,0.4,13.9,18.9,15.7,20.6c1.1,1.1,1.3,1.5,1.3,1.8
			c0,0.1-0.1,0.2-0.2,0.3c-0.3,0.2-1.3,0.3-2.2,0.3c-2,0-1.9-0.3-2.4-1.3c-0.4-0.8-4.9-6.4-7.2-9.8c-1.2-1.7-3.3-4.4-5.1-6.7
			l-3.4-4.2l-0.2,1.9C385.6,39.5,385.6,40.9,385.6,41.9z M388.2,33.3c1.4,0,3.1-0.1,4.4-0.4c2.6-0.4,4.5-1.1,4.5-3.2
			c0-2.1-4-3.1-6-3.1c-1.2,0-2.4,0-3.4,0h-1.7l-0.3,6.8C386.6,33.4,387.4,33.4,388.2,33.3z"/>
		<path class="st0" d="M432.6,28.4c0.1,0.1,0.2,0.3,0.2,0.4c0,0.2-0.1,0.4-0.3,0.7c-0.3,0.4-1.2,1.8-1.7,2.4c-0.4,0.5-0.4,0.8-1,0.8
			c-0.5,0-5-5-8.5-5c-1.3,0-3.1,0.1-3.1,3.4c0,3.2,3.5,4.6,5.7,5.5c2.3,1,9.5,3.4,9.5,13c0,6.4-5.3,9.3-13.2,9.3
			c-7.9,0-10.5-5.1-10.9-5.5c-0.1-0.2-0.2-0.3-0.2-0.5c0-0.2,0.1-0.3,0.4-0.6c0.4-0.5,1.3-1.6,1.8-2.1c0.1-0.1,0.2-0.2,0.4-0.2
			c0.3,0,0.6,0.5,1,0.9c0.5,0.5,2.7,2.9,6.5,2.9c1.7,0,4.6-0.4,4.6-3.4c0-3-3.1-5.6-5.3-7.1c-2.2-1.6-8.9-3.8-8.9-10.1
			c0-6.3,7.1-10.2,10.6-10.2C427.7,23.1,432.3,28,432.6,28.4z"/>
	</g>
</g>
</svg>
