<?xml version="1.0" encoding="utf-8"?>
<!-- Generator: Adobe Illustrator 16.0.0, SVG Export Plug-In . SVG Version: 6.00 Build 0)  -->
<!DOCTYPE svg PUBLIC "-//W3C//DTD SVG 1.1//EN" "http://www.w3.org/Graphics/SVG/1.1/DTD/svg11.dtd">
<svg version="1.1" id="Capa_1" xmlns="http://www.w3.org/2000/svg" xmlns:xlink="http://www.w3.org/1999/xlink" x="0px" y="0px"
	 width="1002.329px" height="1080px" viewBox="0 0 1002.329 1080" enable-background="new 0 0 1002.329 1080" xml:space="preserve">
<g>
	<path fill="#2196F3" d="M582.564,540.095L40.213,1062.342c-25.397-17.357-40.477-46.228-40.21-76.988V94.837
		c-0.267-30.76,14.813-59.631,40.21-76.987L582.564,540.095z"/>
	<path fill="#4CAF50" d="M772.337,357.677L582.564,540.095L40.213,17.849c2.043-1.584,4.172-3.058,6.374-4.413
		c28.664-17.373,64.467-17.935,93.662-1.472L772.337,357.677z"/>
	<path fill="#FFC107" d="M1002.324,540.095c0.354,34.725-18.516,66.8-49.037,83.364l-180.948,99.055L582.566,540.095
		l189.773-182.418l180.948,99.054C983.809,473.296,1002.679,505.371,1002.324,540.095z"/>
	<path fill="#F44336" d="M772.337,722.514L140.25,1068.227c-29.26,16.207-64.928,15.646-93.662-1.472
		c-2.202-1.356-4.331-2.829-6.374-4.413l542.353-522.247L772.337,722.514z"/>
</g>
</svg>
