<svg xmlns="http://www.w3.org/2000/svg" viewBox="0 0 45 49.97"><title>Fichier 5</title><g id="Calque_2" data-name="Calque 2"><g id="Layer_1" data-name="Layer 1"><path d="M35.29,21.73a9.21,9.21,0,0,0-2,.21V16.26H0V33.87A16.1,16.1,0,0,0,16.1,50h1.12a16.09,16.09,0,0,0,14.66-9.44,9.71,9.71,0,1,0,3.41-18.8Zm0,15.54a5.78,5.78,0,0,1-2.24-.45,16.86,16.86,0,0,0,.27-3V26a5.83,5.83,0,1,1,2,11.31Z" style="fill:#f9c152"/><path d="M35.29,21.73a9.21,9.21,0,0,0-2,.21V16.26H17.13V50h.09a16.12,16.12,0,0,0,14.66-9.44,9.71,9.71,0,1,0,3.41-18.8Zm0,15.54a5.78,5.78,0,0,1-2.24-.45,16.86,16.86,0,0,0,.27-3V26a5.83,5.83,0,1,1,2,11.31Z" style="fill:#f8ac00"/><path d="M7.78,0S12,3.38,8.21,7.57c-2.92,3.25,2.18,7,2.18,7s-1.27-3,1.33-7.27C14,3.55,11.37,1,7.78,0Z" style="fill:#fff"/><path d="M15.44,0s4.19,3.38.42,7.57c-2.91,3.25,2.19,7,2.19,7s-1.28-3,1.32-7.27C21.64,3.55,19,1,15.44,0Z" style="fill:#fff"/><path d="M19.37,7.27c-2.6,4.27-1.32,7.27-1.32,7.27a8.4,8.4,0,0,1-.92-.79V5.58a4.39,4.39,0,0,0,0-3.2V.64C19.76,1.9,21.26,4.17,19.37,7.27Z" style="fill:#fff8d0"/><path d="M23.09,0s4.19,3.38.43,7.57c-2.91,3.25,2.18,7,2.18,7s-1.27-3,1.33-7.27C29.29,3.55,26.69,1,23.09,0Z" style="fill:#fff8d0"/></g></g></svg>