<svg xmlns="http://www.w3.org/2000/svg" viewBox="0 0 41.09 63.68"><title>Fichier 1</title><g style="isolation:isolate"><g id="Calque_2" data-name="Calque 2"><g id="Layer_1" data-name="Layer 1"><g style="mix-blend-mode:luminosity"><path d="M12.33,18V15.41H6.16V18A9.24,9.24,0,0,0,0,26.71V61.63a2,2,0,0,0,2.05,2H16.43a2.06,2.06,0,0,0,2.06-2V26.71A9.26,9.26,0,0,0,12.33,18Z" style="fill:#6a6f7b"/><path d="M32.87,63.68a1,1,0,0,1-1-1V50.34a1,1,0,0,1,2.06,0V62.66A1,1,0,0,1,32.87,63.68Z" style="fill:#d7d9e2"/><path d="M6.16,0h6.17V5.13H6.16Z" style="fill:#e9495b"/><path d="M6.16,5.13h6.17V15.41H6.16Z" style="fill:#da3746"/><path d="M39,28.77l2.06,13.34H24.65l2.06-13.34Z" style="fill:#edeff3"/><path d="M39,28.77H37L39,42.11h2.06Z" style="fill:#d7d9e2"/><path d="M41.08,42.11h0a8.22,8.22,0,0,1-16.44,0H41.08Z" style="fill:#e9495b"/><path d="M41.08,42.11H39a8.22,8.22,0,0,1-7.19,8.15,8.76,8.76,0,0,0,1,.07,8.22,8.22,0,0,0,8.22-8.22Z" style="fill:#da3746"/><path d="M3.08,53.41V33.9H15.41V53.41Z" style="fill:#e9495b"/><path d="M12.33,18V15.41H9.24V19a9.26,9.26,0,0,1,6.16,8.72v4.11h0V55.47h0v6.16a2.05,2.05,0,0,1-2.05,2h3.08a2.06,2.06,0,0,0,2.06-2V26.71A9.26,9.26,0,0,0,12.33,18Z" style="fill:#494b56"/><path d="M9.24,5.13h3.09V15.41H9.24Z" style="fill:#d42a41"/><path d="M9.24,0h3.09V5.13H9.24Z" style="fill:#da3746"/><path d="M9.24,39.54A1.54,1.54,0,1,1,7.7,38,1.53,1.53,0,0,1,9.24,39.54Z" style="fill:#da3746"/><path d="M9.24,40.66A1.54,1.54,0,1,1,7.7,42.2,1.55,1.55,0,0,1,9.24,40.66Z" style="fill:#da3746"/><path d="M9.24,39.54a1.55,1.55,0,1,1,1.55,1.54A1.55,1.55,0,0,1,9.24,39.54Z" style="fill:#da3746"/><path d="M12.32,47.24H6.16a1,1,0,1,1,0-2.05h6.16a1,1,0,1,1,0,2.05Z" style="fill:#da3746"/><path d="M10.27,50.33h-2a1,1,0,1,1,0-2.06h2a1,1,0,0,1,0,2.06Z" style="fill:#da3746"/><path d="M39,63.68H26.7a1,1,0,0,1,0-2H39a1,1,0,0,1,0,2Z" style="fill:#edeff3"/></g></g></g></g></svg>